<svg width="64" height="64" viewBox="0 0 64 64" fill="none" xmlns="http://www.w3.org/2000/svg">
<g clip-path="url(#clip0)">
<path d="M31.9914 21.3288C26.1156 21.3288 21.3204 26.1241 21.3204 32C21.3204 37.8759 26.1156 42.6712 31.9914 42.6712C37.8672 42.6712 42.6624 37.8759 42.6624 32C42.6624 26.1241 37.8672 21.3288 31.9914 21.3288ZM63.9964 32C63.9964 27.5811 64.0364 23.2021 63.7883 18.791C63.5401 13.6676 62.3714 9.12055 58.6249 5.37401C54.8704 1.61947 50.3315 0.458689 45.2081 0.210521C40.7892 -0.037646 36.4103 0.00238116 31.9994 0.00238116C27.5805 0.00238116 23.2016 -0.037646 18.7907 0.210521C13.6674 0.458689 9.12037 1.62748 5.37391 5.37401C1.61944 9.12855 0.458681 13.6676 0.210518 18.791C-0.0376453 23.2101 0.00238112 27.589 0.00238112 32C0.00238112 36.411 -0.0376453 40.7979 0.210518 45.209C0.458681 50.3324 1.62745 54.8795 5.37391 58.626C9.12837 62.3805 13.6674 63.5413 18.7907 63.7894C23.2097 64.0377 27.5885 63.9976 31.9994 63.9976C36.4183 63.9976 40.7972 64.0377 45.2081 63.7894C50.3315 63.5413 54.8784 62.3725 58.6249 58.626C62.3793 54.8715 63.5401 50.3324 63.7883 45.209C64.0445 40.7979 63.9964 36.4189 63.9964 32ZM31.9914 48.419C22.9054 48.419 15.5726 41.0861 15.5726 32C15.5726 22.9139 22.9054 15.581 31.9914 15.581C41.0774 15.581 48.4102 22.9139 48.4102 32C48.4102 41.0861 41.0774 48.419 31.9914 48.419ZM49.0826 18.7431C46.9612 18.7431 45.2481 17.0299 45.2481 14.9084C45.2481 12.787 46.9612 11.0739 49.0826 11.0739C51.204 11.0739 52.9172 12.787 52.9172 14.9084C52.9178 15.4121 52.819 15.9111 52.6266 16.3767C52.434 16.8422 52.1516 17.2651 51.7954 17.6213C51.4392 17.9775 51.0163 18.2599 50.5508 18.4525C50.0852 18.6449 49.5864 18.7437 49.0826 18.7431Z" fill="#7AA3E5"/>
</g>
<defs>
<clipPath id="clip0">
<rect width="64" height="64" fill="white"/>
</clipPath>
</defs>
</svg>
