<svg width="64" height="64" viewBox="0 0 64 64" fill="none" xmlns="http://www.w3.org/2000/svg">
<path d="M51.4012 26.1627C51.8328 26.1799 52.241 26.3634 52.5403 26.6749C52.8396 26.9863 53.0067 27.4014 53.0067 27.8334C53.0067 28.2652 52.8396 28.6804 52.5403 28.9919C52.241 29.3032 51.8328 29.4868 51.4012 29.504H46.751V32.4849H51.4012C51.6259 32.476 51.8501 32.5124 52.0603 32.5922C52.2704 32.672 52.4624 32.7935 52.6244 32.9492C52.7865 33.105 52.9155 33.2919 53.0036 33.4988C53.0917 33.7055 53.137 33.928 53.137 34.1529C53.137 34.3777 53.0917 34.6002 53.0036 34.807C52.9155 35.0139 52.7865 35.2008 52.6244 35.3565C52.4624 35.5123 52.2704 35.6337 52.0603 35.7135C51.8501 35.7933 51.6259 35.8298 51.4012 35.8208H45.0792C44.6385 35.8181 44.2166 35.6414 43.9056 35.3293C43.5945 35.0172 43.4192 34.5948 43.4178 34.1542V21.5125C43.4178 20.5984 44.165 19.8432 45.087 19.8432H51.4092C51.8519 19.8442 52.2761 20.0211 52.5884 20.335C52.9008 20.6488 53.0756 21.0738 53.0745 21.5165C53.0735 21.9592 52.8966 22.3834 52.5828 22.6957C52.2691 23.008 51.8441 23.1829 51.4012 23.1818H46.751V26.1627H51.4012ZM41.1868 34.1542C41.1846 34.596 41.0075 35.019 40.694 35.3304C40.3806 35.6418 39.9566 35.8162 39.5148 35.8156C39.2529 35.8212 38.9936 35.7641 38.7585 35.6488C38.5233 35.5335 38.3193 35.3636 38.1635 35.1531L31.6902 26.3641V34.1542C31.6611 34.576 31.4729 34.971 31.1638 35.2595C30.8547 35.548 30.4476 35.7083 30.0249 35.7083C29.6021 35.7083 29.195 35.548 28.886 35.2595C28.5768 34.971 28.3887 34.576 28.3596 34.1542V21.5125C28.3588 21.0728 28.5325 20.6507 28.8424 20.3389C29.1523 20.0269 29.5733 19.8506 30.013 19.8485C30.5296 19.8485 31.0066 20.1241 31.3245 20.5215L37.8481 29.345V21.5125C37.8481 20.5984 38.5953 19.8432 39.5174 19.8432C40.4316 19.8432 41.1868 20.5984 41.1868 21.5125V34.1542ZM25.9748 34.1542C25.9727 34.5965 25.7958 35.02 25.4825 35.3322C25.1692 35.6445 24.7452 35.8202 24.3029 35.8208C23.8622 35.8181 23.4405 35.6414 23.1293 35.3293C22.8182 35.0172 22.6429 34.5948 22.6415 34.1542V21.5125C22.6415 20.5984 23.3887 19.8432 24.3108 19.8432C25.2276 19.8432 25.9748 20.5984 25.9748 21.5125V34.1542ZM19.4407 35.8208H13.1185C12.6771 35.8181 12.2545 35.6416 11.9421 35.3298C11.6298 35.0179 11.4526 34.5956 11.4492 34.1542V21.5125C11.4492 20.5984 12.2044 19.8432 13.1185 19.8432C14.0406 19.8432 14.7878 20.5984 14.7878 21.5125V32.4849H19.4407C19.8715 32.502 20.2791 32.6853 20.5778 32.9962C20.8766 33.3071 21.0435 33.7216 21.0435 34.1529C21.0435 34.5841 20.8766 34.9986 20.5778 35.3095C20.2791 35.6204 19.8715 35.8037 19.4407 35.8208ZM63.6827 27.3577C63.6827 13.1263 49.414 1.54443 31.8863 1.54443C14.3586 1.54443 0.0899658 13.1263 0.0899658 27.3577C0.0899658 40.1054 11.4041 50.7864 26.6796 52.816C27.7157 53.0332 29.1254 53.4996 29.483 54.3793C29.801 55.1769 29.6924 56.409 29.5837 57.241L29.1492 59.9437C29.0299 60.7412 28.5133 63.0862 31.9286 61.6527C35.3494 60.2245 50.254 50.8473 56.9312 43.1711C61.4992 38.1658 63.6827 33.0387 63.6827 27.3577Z" fill="#7AA3E5"/>
</svg>
