<svg width="64" height="64" viewBox="0 0 64 64" fill="none" xmlns="http://www.w3.org/2000/svg">
<path d="M64 13.2162C62.2178 15.7265 60.0313 17.8665 57.4405 19.636C57.4661 20.1106 57.4789 20.647 57.4789 21.2452C57.4789 24.5691 56.9671 27.8969 55.9437 31.2287C54.9202 34.5607 53.3568 37.7499 51.2536 40.7964C49.1503 43.8429 46.645 46.5419 43.7375 48.8933C40.8299 51.2446 37.335 53.1196 33.2527 54.5179C29.1703 55.9162 24.795 56.6154 20.1271 56.6154C12.8418 56.6154 6.13276 54.753 0 51.0281C1.08849 51.1428 2.13245 51.2002 3.13186 51.2002C9.21809 51.2002 14.6541 49.4249 19.4399 45.8745C16.6021 45.8252 14.0607 44.998 11.8156 43.3928C9.57051 41.7877 8.02549 39.7366 7.18054 37.2396C8.01571 37.3902 8.84004 37.4655 9.65344 37.4655C10.8242 37.4655 11.9764 37.3209 13.1097 37.0317C10.0813 36.4574 7.56894 35.029 5.57271 32.7467C3.57654 30.4644 2.57845 27.8301 2.57845 24.844V24.6901C4.4373 25.6647 6.42006 26.1832 8.52669 26.2454C6.73272 25.1128 5.31033 23.636 4.25959 21.8147C3.20877 19.9935 2.68337 18.0225 2.68337 15.902C2.68337 13.6655 3.27518 11.5829 4.45881 9.65423C7.75215 13.4813 11.7427 16.5401 16.4305 18.8305C21.1184 21.1209 26.1476 22.3929 31.5181 22.6466C31.289 21.7425 31.1743 20.7992 31.1739 19.8165C31.1739 16.3853 32.4562 13.4554 35.0207 11.0271C37.5852 8.59881 40.6792 7.38464 44.3027 7.38464C48.0963 7.38464 51.2917 8.69272 53.8889 11.3089C56.8563 10.7523 59.6347 9.74552 62.2242 8.28862C61.2266 11.2618 59.3042 13.5555 56.4571 15.1695C59.0739 14.875 61.5881 14.2239 63.9999 13.2162H64Z" fill="#7AA3E5"/>
</svg>
