<svg width="64" height="64" viewBox="0 0 64 64" fill="none" xmlns="http://www.w3.org/2000/svg">
<g clip-path="url(#clip0)">
<path d="M62.6643 16.5786C62.3 15.2217 61.5857 13.9843 60.5928 12.9902C59.6 11.9962 58.3636 11.2803 57.0071 10.9143C52.0143 9.57141 32 9.57141 32 9.57141C32 9.57141 11.9857 9.57141 6.99286 10.9071C5.63586 11.272 4.39875 11.9874 3.40576 12.9817C2.41276 13.9759 1.69885 15.214 1.33571 16.5714C-2.72478e-07 21.5714 0 32 0 32C0 32 -2.72478e-07 42.4286 1.33571 47.4214C2.07143 50.1786 4.24286 52.35 6.99286 53.0857C11.9857 54.4286 32 54.4286 32 54.4286C32 54.4286 52.0143 54.4286 57.0071 53.0857C59.7643 52.35 61.9286 50.1786 62.6643 47.4214C64 42.4286 64 32 64 32C64 32 64 21.5714 62.6643 16.5786ZM25.6429 41.5714V22.4286L42.2143 31.9286L25.6429 41.5714Z" fill="#7AA3E5"/>
</g>
<defs>
<clipPath id="clip0">
<rect width="64" height="64" fill="white"/>
</clipPath>
</defs>
</svg>
