<svg width="300" height="300" viewBox="0 0 300 300" fill="none" xmlns="http://www.w3.org/2000/svg">
<path d="M197.83 210.387C193.244 223.526 185.418 232.955 174.353 238.674C163.289 244.393 150.343 245.955 135.517 243.36C134.578 243.4 133.993 243.749 133.764 244.406L128.422 260.506C128.136 261.327 127.576 261.869 126.744 262.131C126.02 262.615 125.246 262.713 124.421 262.426L99.674 253.788C98.8491 253.5 98.2213 252.912 97.7907 252.025C97.4678 251.359 97.4496 250.616 97.7362 249.795L103.659 233.621C103.888 232.964 103.648 232.328 102.938 231.711C89.8892 224.025 80.8421 214.418 75.7965 202.892C70.9159 191.423 70.7687 179.119 75.3549 165.979L77.2467 160.559C77.5333 159.738 78.0101 159.168 78.677 158.848C79.5663 158.421 80.4233 158.352 81.2482 158.64L107.975 167.968C108.8 168.256 109.345 168.815 109.61 169.645C110.098 170.368 110.199 171.14 109.912 171.961L108.623 175.657C106.329 182.226 107.267 188.818 111.436 195.432C115.663 201.882 122.808 206.864 132.872 210.376C141.285 213.313 148.103 213.666 153.323 211.435C158.766 209.097 162.434 205.218 164.326 199.798C165.701 195.856 165.611 192.139 164.053 188.648C162.553 184.992 159.92 181.401 156.153 177.875C152.609 174.243 146.766 168.979 138.623 162.083C129.218 154.563 121.574 147.565 115.691 141.089C109.808 134.614 105.484 127.117 102.72 118.598C100.179 109.972 100.656 100.65 104.153 90.631C108.568 77.9845 116.002 68.8796 126.458 63.3165C137.135 57.6467 149.421 55.8545 163.314 57.9401C164.254 57.8996 164.838 57.5508 165.067 56.8938L170.85 38.7367C171.136 37.9155 171.613 37.3449 172.28 37.0249C173.169 36.5983 174.026 36.529 174.851 36.8169L199.598 45.4546C200.423 45.7425 200.968 46.3013 201.234 47.1311C201.722 47.8541 201.822 48.6262 201.536 49.4474L194.839 67.8382C194.61 68.4952 194.85 69.1318 195.56 69.7482C208.279 77.3199 217.075 87.1153 221.949 99.1344C226.88 110.989 227.052 123.486 222.466 136.626L221.176 140.321C220.889 141.142 220.301 141.766 219.412 142.193C218.745 142.513 217.999 142.529 217.174 142.241L190.2 132.826C189.376 132.538 188.719 132.032 188.231 131.309C187.966 130.48 187.976 129.654 188.263 128.833L188.951 126.862C191.358 119.964 190.671 113.183 186.89 106.52C183.165 99.6924 176.601 94.6375 167.197 91.3552C159.773 88.7639 153.426 88.3908 148.155 90.236C142.884 92.0812 139.245 95.878 137.239 101.626C135.805 105.732 135.756 109.585 137.091 113.183C138.592 116.839 141.332 120.651 145.314 124.621C149.296 128.59 155.688 134.138 164.491 141.264C174.111 149.228 181.565 155.975 186.853 161.506C192.14 167.037 196.195 173.979 199.016 182.334C201.837 190.689 201.442 200.04 197.83 210.387Z" fill="white"/>
</svg>
