<svg width="300" height="300" viewBox="0 0 300 300" fill="none" xmlns="http://www.w3.org/2000/svg">
<path fill-rule="evenodd" clip-rule="evenodd" d="M219.385 203.794C231.448 188.266 237.997 169.163 237.997 149.5C237.997 149.5 238.56 137.099 225.596 136.536C212.631 135.972 212.278 149.5 212.278 149.5C212.278 163.449 207.632 177 199.075 188.015C190.517 199.03 178.535 206.881 165.019 210.329C151.504 213.778 137.225 212.626 124.436 207.057C111.647 201.488 101.078 191.819 94.3954 179.575C87.7131 167.331 85.2987 153.211 87.5334 139.443C89.7681 125.674 96.5246 113.042 106.736 103.541C116.948 94.039 130.034 88.2089 143.927 86.9706C154.284 86.0475 164.65 87.7152 174.116 91.7499L171.963 93.9024C170.173 95.6919 169.638 98.3829 170.606 100.721C171.575 103.059 173.856 104.584 176.387 104.584H206.327C209.782 104.584 212.584 101.783 212.584 98.327V68.3879C212.584 65.8571 211.059 63.5758 208.721 62.6072C206.382 61.6382 203.691 62.1738 201.902 63.9638L193.276 72.5894C177.645 63.692 159.634 59.7497 141.644 61.3532C122.058 63.0988 103.612 71.3174 89.2168 84.7117C74.8214 98.106 65.2969 115.913 62.1467 135.322C58.9964 154.731 62.3999 174.637 71.8199 191.896C81.2398 209.156 96.1397 222.787 114.168 230.638C132.195 238.488 152.324 240.111 171.377 235.25C190.43 230.389 207.321 219.322 219.385 203.794Z" fill="white"/>
<path fill-rule="evenodd" clip-rule="evenodd" d="M180.258 151.354H151.119V122.215C151.119 116.3 146.324 111.505 140.409 111.505C134.494 111.505 129.699 116.3 129.699 122.215V162.064C129.699 167.979 134.494 172.774 140.409 172.774H180.258C186.173 172.774 190.968 167.979 190.968 162.064C190.968 156.149 186.173 151.354 180.258 151.354Z" fill="white"/>
</svg>
