<svg width="300" height="300" viewBox="0 0 300 300" fill="none" xmlns="http://www.w3.org/2000/svg">
<path d="M166.718 169.112L125.063 149.344V149.344C124.955 149.293 124.835 149.299 124.753 149.385L96.4385 178.888C95.788 179.566 95.4065 180.462 95.371 181.403L92.4265 258.452C92.3849 259.539 93.863 259.902 94.3292 258.919L118.36 208.28C119.674 205.511 118.836 202.282 117.807 199.395V199.395C115.674 193.408 118.808 186.801 124.796 184.668C130.784 182.534 137.39 185.669 139.523 191.657C141.657 197.644 138.522 204.25 132.535 206.384V206.384C129.648 207.413 126.616 208.805 125.302 211.574L101.271 262.214C100.805 263.196 102.02 264.112 102.836 263.392L160.661 212.387C161.367 211.764 161.821 210.902 161.935 209.969L166.883 169.379C166.897 169.26 166.826 169.163 166.718 169.112V169.112Z" fill="white"/>
<path d="M215.974 61.2376L178.269 43.3445C176.352 42.4346 174.061 43.2508 173.151 45.1683L128.903 138.409C127.993 140.326 128.81 142.617 130.727 143.527L168.432 161.42C169.391 161.875 170.443 161.899 171.369 161.569C172.295 161.239 173.095 160.555 173.55 159.597L217.798 66.3558C218.708 64.438 217.892 62.1474 215.974 61.2376Z" fill="white"/>
</svg>
