<svg width="300" height="300" viewBox="0 0 300 300" fill="none" xmlns="http://www.w3.org/2000/svg">
<path d="M180.887 174.432C209.386 148.015 211.065 103.496 184.647 75.0021C158.229 46.5082 113.711 44.8239 85.2157 71.2474C56.7218 97.6657 55.0386 142.178 81.4621 170.673C100.318 191.011 129.351 198.372 155.615 189.483L195.778 250.611C200.047 257.533 209.119 259.68 216.04 255.411C222.961 251.148 225.109 242.076 220.845 235.155C220.71 234.935 220.577 234.732 220.43 234.52L180.887 174.432ZM123.661 167.32C99.1357 162.172 83.4269 138.127 88.5641 113.599C93.7119 89.0735 117.757 73.3647 142.289 78.5083C166.785 83.6442 182.489 107.656 177.39 132.159C172.278 156.698 148.237 172.44 123.693 167.327C123.682 167.325 123.677 167.324 123.661 167.32Z" fill="white"/>
</svg>
