<svg width="300" height="300" viewBox="0 0 300 300" fill="none" xmlns="http://www.w3.org/2000/svg">
<path d="M111.172 179.652C110.179 179.215 109.417 178.522 108.886 177.576C108.641 176.518 108.738 175.491 109.176 174.497L113.384 164.95C117.767 155.006 123.259 147.925 129.86 143.709C136.747 139.381 145.553 135.543 156.277 132.193C165.085 129.425 171.855 126.708 176.586 124.043C181.405 121.179 185.13 116.764 187.76 110.797C190.565 104.433 191.212 98.6609 189.701 93.4818C188.476 88.1913 185.382 84.4521 180.418 82.2643C174.66 79.7264 169.173 79.8019 163.957 82.4908C158.828 84.9809 154.774 89.607 151.793 96.3693L149.689 101.143C148.725 103.33 147.051 103.899 144.669 102.849L110.481 85.9987C109.488 85.5611 108.726 84.869 108.195 83.9223C107.95 82.8642 108.047 81.8379 108.485 80.8435L109.8 77.8601C115.06 65.9268 122.287 56.5233 131.482 49.6498C140.765 42.5773 151.168 38.6116 162.691 37.7525C174.302 36.6945 186.163 38.8347 198.274 44.173C215.945 51.9617 227.675 63.5452 233.464 78.9235C239.341 94.1028 238.422 110.444 230.708 127.946C226.851 136.697 222.229 143.686 216.842 148.913C211.742 154.028 206.528 157.787 201.201 160.19C196.073 162.68 189.677 165.086 182.014 167.409C174.064 169.843 167.911 172.238 163.553 174.593C159.394 177.035 156.175 180.842 153.895 186.013L150.871 192.875C150.433 193.869 149.641 194.589 148.496 195.035C147.638 195.369 146.712 195.317 145.719 194.879L111.172 179.652ZM98.9903 254.093C92.2397 251.117 87.6447 246.479 85.2052 240.178C82.7658 233.877 83.0802 227.246 86.1485 220.285C89.2167 213.324 93.8553 208.718 100.064 206.466C106.361 204.016 112.885 204.279 119.635 207.254C126.584 210.317 131.279 214.999 133.718 221.3C136.158 227.601 135.887 234.132 132.906 240.895C129.926 247.657 125.243 252.363 118.859 255.012C112.562 257.462 105.939 257.156 98.9903 254.093Z" fill="white"/>
</svg>
