<svg width="300" height="300" viewBox="0 0 300 300" fill="none" xmlns="http://www.w3.org/2000/svg">
<path fill-rule="evenodd" clip-rule="evenodd" d="M214.021 51.5119L203.669 45.5269C193.681 39.7686 180.916 43.1808 175.134 53.1545L168.282 65.0059L214.797 91.8986L221.649 80.0476C227.41 70.0591 223.998 57.2934 214.021 51.5119ZM202.228 48.026C195.771 44.3031 187.967 45.027 182.365 49.2487C187.967 45.027 195.771 44.3032 202.228 48.0261L212.575 54.008C215.022 55.4261 217.011 57.3318 218.49 59.5311C217.011 57.3317 215.022 55.426 212.575 54.0078L202.228 48.026ZM163.957 72.4835L86.6376 206.223L133.153 233.115L210.472 99.3761L163.957 72.4835ZM165.01 76.4247L90.5788 205.169L90.5789 205.169L165.01 76.4248L165.01 76.4247ZM84.702 215.077L84.2611 264.007L126.445 239.211L84.702 215.077ZM87.1917 258.938L87.1916 258.938L87.542 220.052L87.5421 220.052L87.1917 258.938Z" fill="white"/>
</svg>
