<svg width="300" height="300" viewBox="0 0 300 300" fill="none" xmlns="http://www.w3.org/2000/svg">
<path fill-rule="evenodd" clip-rule="evenodd" d="M110.279 77.3854C110.279 55.6601 127.955 37.9846 149.68 37.9846C171.405 37.9846 189.081 55.6601 189.081 77.3854V155.093C189.081 176.668 171.405 194.22 149.68 194.22C127.955 194.22 110.279 176.545 110.279 154.822V77.3854ZM157.889 225.757C192.81 221.679 220 191.912 220 155.914V149.347C220 144.813 216.325 141.138 211.792 141.138C207.258 141.138 203.583 144.813 203.583 149.347V155.914C203.583 185.634 179.401 209.817 149.68 209.817C119.957 209.817 95.7773 185.634 95.7773 155.914V149.347C95.7773 144.813 92.1027 141.138 87.5688 141.138C83.035 141.138 79.3604 144.813 79.3604 149.347V155.914C79.3604 191.912 106.55 221.679 141.472 225.757V246.482H128.064C123.53 246.482 119.856 250.156 119.856 254.69C119.856 259.224 123.53 262.899 128.064 262.899H171.296C175.83 262.899 179.505 259.224 179.505 254.69C179.505 250.156 175.83 246.482 171.296 246.482H157.889V225.757Z" fill="white"/>
</svg>
