<svg width="300" height="300" viewBox="0 0 300 300" fill="none" xmlns="http://www.w3.org/2000/svg">
<path d="M208.484 45.7652C201.158 53.5294 193.801 61.3023 186.777 69.3848C178.627 78.6877 170.51 88.1599 163 97.7647C153.644 109.757 144.699 122.102 135.758 134.575C131.719 140.056 128.25 145.935 125.406 152.122C123.293 156.959 122.903 162.646 121.708 167.964C121.388 169.276 122.146 169.82 123.682 170.641C128.413 173.249 133.164 175.868 137.758 178.678C140.732 180.545 143.359 182.951 146.326 185.242C147.872 184.128 149.364 182.882 151.035 181.861C156.96 178.505 161.883 173.626 165.296 167.73C169.145 160.748 173.179 153.842 176.768 146.691C181.046 138.154 185.161 129.502 188.988 120.641C193.999 108.994 198.786 97.2652 203.349 85.4555C207.109 75.8013 210.589 66.0174 213.885 56.157C215.675 50.7631 216.822 45.1658 218.303 39.6016L217.754 38.5423C217.021 38.7882 216.321 39.1222 215.669 39.537C213.147 41.4616 210.748 43.5417 208.484 45.7652V45.7652Z" fill="white"/>
<path d="M115.072 182.288C109.229 183.315 103.948 186.41 100.193 191.008C94.3832 198.112 90.7794 206.761 89.8273 215.887C88.3871 226.492 85.9067 236.701 80.152 245.861C77.7701 250.014 74.4945 253.584 70.5633 256.313C71.0242 256.39 71.2086 256.467 71.4251 256.485C85.3948 257.452 99.1815 256.377 112.058 250.512C117.562 248.152 122.504 244.649 126.557 240.235C130.609 235.82 133.679 230.596 135.564 224.908C138.105 217.168 139.22 209.032 138.855 200.896C139.094 198.886 138.551 196.862 137.338 195.243C132.641 189.663 126.593 185.383 119.769 182.809C118.269 182.258 116.657 182.079 115.072 182.288V182.288Z" fill="white"/>
</svg>
