<svg width="300" height="300" viewBox="0 0 300 300" fill="none" xmlns="http://www.w3.org/2000/svg">
<path d="M148.026 105.486V90.186H102.354V180.362H148.026V165.063C134.114 162.289 123.596 149.989 123.596 135.274C123.596 120.56 134.114 108.259 148.026 105.486V105.486Z" fill="white"/>
<path d="M110.113 192.257H140.267V208.42H110.113V192.257Z" fill="white"/>
<path d="M232.001 184.093C232.001 153.895 207.433 129.327 177.235 129.327H171.468C168.986 122.046 162.083 116.792 153.973 116.792C143.782 116.792 135.491 125.083 135.491 135.274C135.491 145.465 143.782 153.756 153.973 153.756C162.083 153.756 168.985 148.502 171.468 141.221H177.235C200.875 141.221 220.106 160.453 220.106 184.093C220.106 207.73 200.879 226.96 177.243 226.965H68V252H232.001V226.965H211.273C223.894 216.923 232.001 201.438 232.001 184.093V184.093Z" fill="white"/>
<path d="M110.946 78.2637H139.433V60.8945H151.327V49H99.0518V60.8945H110.946V78.2637Z" fill="white"/>
</svg>
