<svg width="300" height="300" viewBox="0 0 300 300" fill="none" xmlns="http://www.w3.org/2000/svg">
<path d="M190.851 47.6488C154.815 33.1822 113.555 50.8041 99.0883 86.8399C91.524 105.682 92.4869 127.127 101.466 144.953C107.669 159.477 97.8392 181.238 97.5091 181.379C97.0363 182.557 96.8936 183.594 97.4575 184.914C97.8805 185.904 98.869 186.848 99.8111 187.226L159.871 211.337C161.049 211.81 162.18 211.717 163.17 211.294C164.16 210.871 165.104 209.883 165.577 208.705C165.671 208.47 173.382 185.857 187.905 179.654C188.235 179.513 188.565 179.372 188.896 179.231C207.567 172.233 222.667 157.783 230.042 139.411C244.509 103.376 226.887 62.1154 190.851 47.6488Z" fill="white"/>
<path d="M103.449 197.114L150.171 215.871C155.588 218.045 158.267 224.317 156.092 229.734C153.917 235.151 147.74 237.594 141.993 235.561L95.5064 216.898C90.0892 214.724 87.4107 208.452 89.5854 203.035C91.7601 197.618 98.0317 194.939 103.449 197.114Z" fill="white"/>
<path d="M134.515 240.438L97.7726 225.688C92.3554 223.513 86.0839 226.192 83.9091 231.609C81.7344 237.026 84.413 243.298 89.8301 245.472L126.573 260.223C131.99 262.397 138.261 259.719 140.436 254.302C142.705 248.649 139.932 242.613 134.515 240.438Z" fill="white"/>
</svg>
