<svg width="300" height="300" viewBox="0 0 300 300" fill="none" xmlns="http://www.w3.org/2000/svg">
<path fill-rule="evenodd" clip-rule="evenodd" d="M70.6567 243.121C70.6567 243.121 54.7881 243.121 54.7881 227.241C54.7881 211.361 70.6567 163.719 150 163.719C229.343 163.719 245.212 211.361 245.212 227.241C245.212 243.121 229.343 243.121 229.343 243.121H70.6567ZM150 151.283C162.626 151.283 174.734 146.263 183.662 137.329C192.59 128.394 197.606 116.277 197.606 103.641C197.606 91.0061 192.59 78.8883 183.662 69.9538C174.734 61.0193 162.626 56 150 56C137.374 56 125.265 61.0193 116.337 69.9538C107.41 78.8883 102.394 91.0061 102.394 103.641C102.394 116.277 107.41 128.394 116.337 137.329C125.265 146.263 137.374 151.283 150 151.283Z" fill="white"/>
</svg>
