<svg width="300" height="300" viewBox="0 0 300 300" fill="none" xmlns="http://www.w3.org/2000/svg">
<path d="M149.453 195.314C139.082 195.314 130.645 203.724 130.645 214.056C130.645 224.391 139.082 232.805 149.453 232.805C159.828 232.805 168.266 224.391 168.266 214.056C168.266 203.724 159.827 195.314 149.453 195.314Z" fill="white"/>
<path fill-rule="evenodd" clip-rule="evenodd" d="M194.617 171.533C182.565 159.488 166.527 152.852 149.453 152.852C132.446 152.852 116.451 159.444 104.402 171.414C99.8612 175.933 99.8537 183.296 104.383 187.823L104.384 187.823C106.586 190.029 109.514 191.239 112.638 191.239C115.747 191.239 118.664 190.035 120.864 187.848C128.507 180.253 138.663 176.067 149.453 176.067C160.283 176.067 170.468 180.279 178.116 187.92C180.32 190.12 183.247 191.333 186.366 191.333C189.478 191.333 192.394 190.129 194.596 187.942C199.143 183.423 199.151 176.063 194.617 171.533Z" fill="white"/>
<path d="M254.296 111.021C226.3 83.0935 189.064 67.7178 149.454 67.7178C109.897 67.7178 72.698 83.0576 44.7104 110.918C39.766 115.839 39.7626 123.855 44.7036 128.784C47.0979 131.172 50.283 132.485 53.6717 132.485C57.0586 132.485 60.2402 131.177 62.6346 128.791C85.8334 105.7 116.665 92.9807 149.454 92.9807C182.29 92.9807 213.152 105.726 236.356 128.879C238.751 131.268 241.941 132.586 245.328 132.586C248.713 132.586 251.895 131.271 254.287 128.889C259.234 123.965 259.239 115.945 254.296 111.021Z" fill="white"/>
<path fill-rule="evenodd" clip-rule="evenodd" d="M149.469 134.76C128.794 134.76 109.451 142.176 94.938 155.541L94.936 155.543C92.3418 157.934 88.9547 159.186 85.463 159.186C81.9657 159.186 78.5758 157.927 75.9832 155.535L75.9824 155.535C70.4742 150.45 70.4759 142.005 75.9915 136.926C95.6843 118.788 121.801 108.855 149.469 108.855C177.174 108.855 203.318 118.811 223.017 136.994C228.53 142.078 228.52 150.525 223.008 155.602C220.42 157.987 217.035 159.249 213.537 159.249C210.037 159.249 206.644 157.984 204.053 155.592C189.538 142.192 170.176 134.76 149.469 134.76Z" fill="white"/>
</svg>
