<svg width="270" height="240" viewBox="0 0 270 240" fill="none" xmlns="http://www.w3.org/2000/svg">
<mask id="mask0" mask-type="alpha" maskUnits="userSpaceOnUse" x="0" y="0" width="270" height="240">
<rect width="270" height="240" fill="#C4C4C4"/>
</mask>
<g mask="url(#mask0)">
<g filter="url(#filter0_dd)">
<mask id="path-2-inside-1" fill="white">
<path fill-rule="evenodd" clip-rule="evenodd" d="M180.081 28.8491C185.262 28.8491 189.462 33.0495 189.462 38.2308V101.839C189.474 104.008 191.236 105.763 193.408 105.763C194.977 105.763 196.331 104.848 196.968 103.523V46.2054C196.968 41.024 201.168 36.8236 206.349 36.8236C211.531 36.8236 215.731 41.024 215.731 46.2054V100.723C215.745 102.995 217.59 104.832 219.866 104.832C221.257 104.832 222.487 104.145 223.237 103.092V61.216C223.237 56.0346 227.437 51.8343 232.618 51.8343C237.8 51.8343 242 56.0346 242 61.216V112.816V130.641V148.935C242 162.115 234.344 173.507 223.236 178.907V190.215H155.688V181.767C149.623 180.206 145.041 174.95 144.487 168.541L110.297 134.352C105.901 129.956 105.901 122.827 110.297 118.431C114.694 114.034 121.822 114.034 126.219 118.431L144.43 136.642L144.43 115.63L144.43 112.816L144.43 46.2054C144.43 41.024 148.63 36.8236 153.812 36.8236C158.993 36.8236 163.194 41.024 163.194 46.2054V102.747C163.205 104.831 164.899 106.518 166.987 106.518C168.814 106.518 170.339 105.226 170.699 103.506V38.2308C170.699 33.0495 174.899 28.8491 180.081 28.8491ZM144.43 197.72H234.495V238.999H144.43V197.72Z"/>
</mask>
<path fill-rule="evenodd" clip-rule="evenodd" d="M180.081 28.8491C185.262 28.8491 189.462 33.0495 189.462 38.2308V101.839C189.474 104.008 191.236 105.763 193.408 105.763C194.977 105.763 196.331 104.848 196.968 103.523V46.2054C196.968 41.024 201.168 36.8236 206.349 36.8236C211.531 36.8236 215.731 41.024 215.731 46.2054V100.723C215.745 102.995 217.59 104.832 219.866 104.832C221.257 104.832 222.487 104.145 223.237 103.092V61.216C223.237 56.0346 227.437 51.8343 232.618 51.8343C237.8 51.8343 242 56.0346 242 61.216V112.816V130.641V148.935C242 162.115 234.344 173.507 223.236 178.907V190.215H155.688V181.767C149.623 180.206 145.041 174.95 144.487 168.541L110.297 134.352C105.901 129.956 105.901 122.827 110.297 118.431C114.694 114.034 121.822 114.034 126.219 118.431L144.43 136.642L144.43 115.63L144.43 112.816L144.43 46.2054C144.43 41.024 148.63 36.8236 153.812 36.8236C158.993 36.8236 163.194 41.024 163.194 46.2054V102.747C163.205 104.831 164.899 106.518 166.987 106.518C168.814 106.518 170.339 105.226 170.699 103.506V38.2308C170.699 33.0495 174.899 28.8491 180.081 28.8491ZM144.43 197.72H234.495V238.999H144.43V197.72Z" fill="#F7F7F7"/>
<path d="M189.462 101.839L188.399 101.845V101.839H189.462ZM196.968 103.523H198.031V103.764L197.926 103.983L196.968 103.523ZM215.731 100.723L214.668 100.729V100.723H215.731ZM223.237 103.092H224.3V103.431L224.103 103.708L223.237 103.092ZM223.236 178.907H222.173V178.241L222.772 177.951L223.236 178.907ZM223.236 190.215H224.299V191.278H223.236V190.215ZM155.688 190.215V191.278H154.625V190.215H155.688ZM155.688 181.767L155.953 180.738L156.751 180.943V181.767H155.688ZM144.487 168.541L145.238 167.79L145.512 168.064L145.546 168.45L144.487 168.541ZM110.297 134.352L111.049 133.6L111.049 133.6L110.297 134.352ZM144.43 136.642L145.493 136.642L145.493 139.208L143.678 137.394L144.43 136.642ZM144.43 115.63L145.493 115.63L145.493 115.63L144.43 115.63ZM144.43 112.816L143.367 112.816L143.367 112.816L144.43 112.816ZM144.43 46.2054L145.493 46.2054V46.2054L144.43 46.2054ZM163.194 102.747L162.131 102.753V102.747H163.194ZM170.699 103.506H171.762V103.616L171.739 103.724L170.699 103.506ZM234.495 197.72V196.657H235.558V197.72H234.495ZM144.43 197.72H143.367V196.657H144.43V197.72ZM234.495 238.999H235.558V240.062H234.495V238.999ZM144.43 238.999V240.062H143.367V238.999H144.43ZM188.399 38.2308C188.399 33.6365 184.675 29.9121 180.081 29.9121V27.7861C185.849 27.7861 190.525 32.4624 190.525 38.2308H188.399ZM188.399 101.839V38.2308H190.525V101.839H188.399ZM193.408 106.826C190.651 106.826 188.415 104.598 188.399 101.845L190.525 101.833C190.534 103.418 191.822 104.7 193.408 104.7V106.826ZM197.926 103.983C197.12 105.662 195.401 106.826 193.408 106.826V104.7C194.553 104.7 195.543 104.033 196.009 103.062L197.926 103.983ZM198.031 46.2054V103.523H195.905V46.2054H198.031ZM206.349 37.8866C201.755 37.8866 198.031 41.6111 198.031 46.2054H195.905C195.905 40.4369 200.581 35.7607 206.349 35.7607V37.8866ZM214.668 46.2054C214.668 41.6111 210.944 37.8866 206.349 37.8866V35.7607C212.118 35.7607 216.794 40.4369 216.794 46.2054H214.668ZM214.668 100.723V46.2054H216.794V100.723H214.668ZM219.866 105.895C217.006 105.895 214.685 103.585 214.668 100.729L216.794 100.716C216.804 102.404 218.175 103.769 219.866 103.769V105.895ZM224.103 103.708C223.162 105.03 221.615 105.895 219.866 105.895V103.769C220.898 103.769 221.812 103.261 222.37 102.476L224.103 103.708ZM224.3 61.216V103.092H222.174V61.216H224.3ZM232.618 52.8973C228.024 52.8973 224.3 56.6217 224.3 61.216H222.174C222.174 55.4475 226.85 50.7713 232.618 50.7713V52.8973ZM240.937 61.216C240.937 56.6217 237.213 52.8973 232.618 52.8973V50.7713C238.387 50.7713 243.063 55.4475 243.063 61.216H240.937ZM240.937 112.816V61.216H243.063V112.816H240.937ZM240.937 130.641V112.816H243.063V130.641H240.937ZM240.937 148.935V130.641H243.063V148.935H240.937ZM222.772 177.951C233.527 172.722 240.937 161.693 240.937 148.935H243.063C243.063 162.538 235.161 174.292 223.701 179.863L222.772 177.951ZM222.173 190.215V178.907H224.299V190.215H222.173ZM155.688 189.152H223.236V191.278H155.688V189.152ZM156.751 181.767V190.215H154.625V181.767H156.751ZM145.546 168.45C146.061 174.402 150.318 179.288 155.953 180.738L155.423 182.797C148.928 181.125 144.022 175.498 143.428 168.633L145.546 168.45ZM111.049 133.6L145.238 167.79L143.735 169.293L109.546 135.104L111.049 133.6ZM111.049 119.182C107.068 123.164 107.068 129.619 111.049 133.6L109.546 135.104C104.734 130.292 104.734 122.491 109.546 117.679L111.049 119.182ZM125.467 119.182C121.486 115.201 115.031 115.201 111.049 119.182L109.546 117.679C114.357 112.867 122.159 112.867 126.97 117.679L125.467 119.182ZM143.678 137.394L125.467 119.182L126.97 117.679L145.182 135.891L143.678 137.394ZM145.493 115.63L145.493 136.642L143.367 136.642L143.367 115.63L145.493 115.63ZM145.493 112.816L145.493 115.63L143.367 115.63L143.367 112.816L145.493 112.816ZM145.493 46.2054L145.493 112.816L143.367 112.816L143.367 46.2054L145.493 46.2054ZM153.812 37.8866C149.218 37.8866 145.493 41.6111 145.493 46.2054H143.367C143.367 40.4369 148.043 35.7607 153.812 35.7607V37.8866ZM162.131 46.2054C162.131 41.6111 158.406 37.8866 153.812 37.8866V35.7607C159.58 35.7607 164.257 40.4369 164.257 46.2054H162.131ZM162.131 102.747V46.2054H164.257V102.747H162.131ZM166.987 107.581C164.314 107.581 162.146 105.422 162.131 102.753L164.257 102.741C164.265 104.241 165.484 105.455 166.987 105.455V107.581ZM171.739 103.724C171.278 105.926 169.327 107.581 166.987 107.581V105.455C168.3 105.455 169.399 104.526 169.659 103.288L171.739 103.724ZM171.762 38.2308V103.506H169.636V38.2308H171.762ZM180.081 29.9121C175.486 29.9121 171.762 33.6365 171.762 38.2308H169.636C169.636 32.4624 174.312 27.7861 180.081 27.7861V29.9121ZM234.495 198.783H144.43V196.657H234.495V198.783ZM233.432 238.999V197.72H235.558V238.999H233.432ZM144.43 237.936H234.495V240.062H144.43V237.936ZM145.493 197.72V238.999H143.367V197.72H145.493Z" fill="#6C87A3" mask="url(#path-2-inside-1)"/>
</g>
<rect x="-15" width="285" height="240" fill="url(#paint0_radial)"/>
</g>
<defs>
<filter id="filter0_dd" x="77" y="-1.15088" width="195" height="270.15" filterUnits="userSpaceOnUse" color-interpolation-filters="sRGB">
<feFlood flood-opacity="0" result="BackgroundImageFix"/>
<feColorMatrix in="SourceAlpha" type="matrix" values="0 0 0 0 0 0 0 0 0 0 0 0 0 0 0 0 0 0 127 0"/>
<feOffset dx="-10" dy="-10"/>
<feGaussianBlur stdDeviation="10"/>
<feColorMatrix type="matrix" values="0 0 0 0 1 0 0 0 0 1 0 0 0 0 1 0 0 0 1 0"/>
<feBlend mode="normal" in2="BackgroundImageFix" result="effect1_dropShadow"/>
<feColorMatrix in="SourceAlpha" type="matrix" values="0 0 0 0 0 0 0 0 0 0 0 0 0 0 0 0 0 0 127 0"/>
<feOffset dx="10" dy="10"/>
<feGaussianBlur stdDeviation="10"/>
<feColorMatrix type="matrix" values="0 0 0 0 0 0 0 0 0 0 0 0 0 0 0 0 0 0 0.15 0"/>
<feBlend mode="normal" in2="effect1_dropShadow" result="effect2_dropShadow"/>
<feBlend mode="normal" in="SourceGraphic" in2="effect2_dropShadow" result="shape"/>
</filter>
<radialGradient id="paint0_radial" cx="0" cy="0" r="1" gradientUnits="userSpaceOnUse" gradientTransform="translate(127.5 120) rotate(90) scale(120 142.5)">
<stop offset="0.84375" stop-color="#F7F7F7" stop-opacity="0"/>
<stop offset="1" stop-color="#F7F7F7"/>
</radialGradient>
</defs>
</svg>
