<svg width="270" height="240" viewBox="0 0 270 240" fill="none" xmlns="http://www.w3.org/2000/svg">
<mask id="mask0" mask-type="alpha" maskUnits="userSpaceOnUse" x="0" y="0" width="270" height="240">
<rect width="270" height="240" fill="#C4C4C4"/>
</mask>
<g mask="url(#mask0)">
<g filter="url(#filter0_dd)">
<mask id="path-2-outside-1" maskUnits="userSpaceOnUse" x="134" y="17.9492" width="122" height="193" fill="black">
<rect fill="white" x="134" y="17.9492" width="122" height="193"/>
<path fill-rule="evenodd" clip-rule="evenodd" d="M161.241 52.3885C161.241 33.9503 176.242 18.9492 194.68 18.9492C213.118 18.9492 228.119 33.9503 228.119 52.3885V118.338C228.119 136.649 213.118 151.546 194.68 151.546C176.242 151.546 161.241 136.544 161.241 118.109V52.3885ZM201.647 178.311C231.284 174.85 254.36 149.587 254.36 119.035V113.462C254.36 109.614 251.242 106.495 247.394 106.495C243.546 106.495 240.427 109.614 240.427 113.462V119.035C240.427 144.258 219.904 164.782 194.68 164.782C169.454 164.782 148.933 144.259 148.933 119.035V113.462C148.933 109.614 145.814 106.495 141.966 106.495C138.119 106.495 135 109.614 135 113.462V119.035C135 149.587 158.076 174.85 187.714 178.311V195.9H176.335C172.487 195.9 169.368 199.018 169.368 202.866C169.368 206.714 172.487 209.833 176.335 209.833H213.025C216.873 209.833 219.992 206.714 219.992 202.866C219.992 199.018 216.873 195.9 213.025 195.9H201.647V178.311Z"/>
</mask>
<path fill-rule="evenodd" clip-rule="evenodd" d="M161.241 52.3885C161.241 33.9503 176.242 18.9492 194.68 18.9492C213.118 18.9492 228.119 33.9503 228.119 52.3885V118.338C228.119 136.649 213.118 151.546 194.68 151.546C176.242 151.546 161.241 136.544 161.241 118.109V52.3885ZM201.647 178.311C231.284 174.85 254.36 149.587 254.36 119.035V113.462C254.36 109.614 251.242 106.495 247.394 106.495C243.546 106.495 240.427 109.614 240.427 113.462V119.035C240.427 144.258 219.904 164.782 194.68 164.782C169.454 164.782 148.933 144.259 148.933 119.035V113.462C148.933 109.614 145.814 106.495 141.966 106.495C138.119 106.495 135 109.614 135 113.462V119.035C135 149.587 158.076 174.85 187.714 178.311V195.9H176.335C172.487 195.9 169.368 199.018 169.368 202.866C169.368 206.714 172.487 209.833 176.335 209.833H213.025C216.873 209.833 219.992 206.714 219.992 202.866C219.992 199.018 216.873 195.9 213.025 195.9H201.647V178.311Z" fill="#F7F7F7"/>
<path d="M201.647 178.311L201.531 177.318L200.647 177.421V178.311H201.647ZM187.714 178.311H188.714V177.421L187.83 177.318L187.714 178.311ZM187.714 195.9V196.9H188.714V195.9H187.714ZM201.647 195.9H200.647V196.9H201.647V195.9ZM162.241 52.3885C162.241 34.5026 176.794 19.9492 194.68 19.9492V17.9492C175.69 17.9492 160.241 33.398 160.241 52.3885H162.241ZM194.68 19.9492C212.566 19.9492 227.119 34.5026 227.119 52.3885H229.119C229.119 33.398 213.671 17.9492 194.68 17.9492V19.9492ZM227.119 52.3885V118.338H229.119V52.3885H227.119ZM227.119 118.338C227.119 136.09 212.573 150.546 194.68 150.546V152.546C213.664 152.546 229.119 137.208 229.119 118.338H227.119ZM194.68 150.546C176.794 150.546 162.241 135.992 162.241 118.109H160.241C160.241 137.097 175.69 152.546 194.68 152.546V150.546ZM162.241 118.109V52.3885H160.241V118.109H162.241ZM201.763 179.304C231.898 175.785 255.36 150.1 255.36 119.035H253.36C253.36 149.073 230.671 173.915 201.531 177.318L201.763 179.304ZM255.36 119.035V113.462H253.36V119.035H255.36ZM255.36 113.462C255.36 109.062 251.794 105.495 247.394 105.495V107.495C250.689 107.495 253.36 110.167 253.36 113.462H255.36ZM247.394 105.495C242.994 105.495 239.427 109.062 239.427 113.462H241.427C241.427 110.166 244.098 107.495 247.394 107.495V105.495ZM239.427 113.462V119.035H241.427V113.462H239.427ZM239.427 119.035C239.427 143.706 219.352 163.782 194.68 163.782V165.782C220.456 165.782 241.427 144.811 241.427 119.035H239.427ZM194.68 163.782C170.007 163.782 149.933 143.707 149.933 119.035H147.933C147.933 144.811 168.902 165.782 194.68 165.782V163.782ZM149.933 119.035V113.462H147.933V119.035H149.933ZM149.933 113.462C149.933 109.062 146.367 105.495 141.966 105.495V107.495C145.262 107.495 147.933 110.166 147.933 113.462H149.933ZM141.966 105.495C137.566 105.495 134 109.062 134 113.462H136C136 110.166 138.671 107.495 141.966 107.495V105.495ZM134 113.462V119.035H136V113.462H134ZM134 119.035C134 150.1 157.462 175.785 187.598 179.304L187.83 177.318C158.69 173.915 136 149.073 136 119.035H134ZM186.714 178.311V195.9H188.714V178.311H186.714ZM187.714 194.9H176.335V196.9H187.714V194.9ZM176.335 194.9C171.935 194.9 168.368 198.466 168.368 202.866H170.368C170.368 199.57 173.039 196.9 176.335 196.9V194.9ZM168.368 202.866C168.368 207.266 171.935 210.833 176.335 210.833V208.833C173.039 208.833 170.368 206.162 170.368 202.866H168.368ZM176.335 210.833H213.025V208.833H176.335V210.833ZM213.025 210.833C217.426 210.833 220.992 207.266 220.992 202.866H218.992C218.992 206.162 216.321 208.833 213.025 208.833V210.833ZM220.992 202.866C220.992 198.466 217.426 194.9 213.025 194.9V196.9C216.321 196.9 218.992 199.57 218.992 202.866H220.992ZM213.025 194.9H201.647V196.9H213.025V194.9ZM202.647 195.9V178.311H200.647V195.9H202.647Z" fill="#6C87A3" mask="url(#path-2-outside-1)"/>
</g>
<rect x="-15" y="-15" width="282" height="255" fill="url(#paint0_radial)"/>
</g>
<defs>
<filter id="filter0_dd" x="94" y="-22.0508" width="196.36" height="267.883" filterUnits="userSpaceOnUse" color-interpolation-filters="sRGB">
<feFlood flood-opacity="0" result="BackgroundImageFix"/>
<feColorMatrix in="SourceAlpha" type="matrix" values="0 0 0 0 0 0 0 0 0 0 0 0 0 0 0 0 0 0 127 0"/>
<feOffset dx="10" dy="10"/>
<feGaussianBlur stdDeviation="12.5"/>
<feColorMatrix type="matrix" values="0 0 0 0 0 0 0 0 0 0 0 0 0 0 0 0 0 0 0.15 0"/>
<feBlend mode="normal" in2="BackgroundImageFix" result="effect1_dropShadow"/>
<feColorMatrix in="SourceAlpha" type="matrix" values="0 0 0 0 0 0 0 0 0 0 0 0 0 0 0 0 0 0 127 0"/>
<feOffset dx="-15" dy="-15"/>
<feGaussianBlur stdDeviation="12.5"/>
<feColorMatrix type="matrix" values="0 0 0 0 1 0 0 0 0 1 0 0 0 0 1 0 0 0 1 0"/>
<feBlend mode="normal" in2="effect1_dropShadow" result="effect2_dropShadow"/>
<feBlend mode="normal" in="SourceGraphic" in2="effect2_dropShadow" result="shape"/>
</filter>
<radialGradient id="paint0_radial" cx="0" cy="0" r="1" gradientUnits="userSpaceOnUse" gradientTransform="translate(126 112.5) rotate(90) scale(127.5 141)">
<stop offset="0.84375" stop-color="#F7F7F7" stop-opacity="0"/>
<stop offset="1" stop-color="#F7F7F7"/>
</radialGradient>
</defs>
</svg>
