<svg width="270" height="240" viewBox="0 0 270 240" fill="none" xmlns="http://www.w3.org/2000/svg">
<mask id="mask0" mask-type="alpha" maskUnits="userSpaceOnUse" x="0" y="0" width="270" height="240">
<rect width="270" height="240" fill="#C4C4C4"/>
</mask>
<g mask="url(#mask0)">
<g filter="url(#filter0_dd)">
<mask id="path-2-inside-1" fill="white">
<path fill-rule="evenodd" clip-rule="evenodd" d="M253.491 159.661C264.192 145.887 270 128.942 270 111.5C270 111.5 270.5 100.5 259 100C247.5 99.5001 247.187 111.5 247.187 111.5C247.187 123.873 243.066 135.894 235.475 145.664C227.884 155.435 217.255 162.4 205.266 165.458C193.277 168.517 180.611 167.496 169.267 162.556C157.923 157.616 148.548 149.039 142.62 138.178C136.693 127.317 134.551 114.792 136.533 102.579C138.516 90.3656 144.509 79.1605 153.567 70.7321C162.625 62.3037 174.233 57.1322 186.557 56.0338C195.744 55.215 204.939 56.6943 213.335 60.2732L211.426 62.1826C209.838 63.77 209.364 66.157 210.222 68.2313C211.082 70.3052 213.105 71.6576 215.35 71.6576H241.908C244.973 71.6576 247.458 69.1726 247.458 66.1074V39.5502C247.458 37.3053 246.106 35.2816 244.032 34.4225C241.957 33.5629 239.57 34.038 237.983 35.6258L230.332 43.277C216.466 35.3846 200.49 31.8877 184.531 33.31C167.158 34.8585 150.796 42.1487 138.026 54.03C125.257 65.9114 116.809 81.707 114.014 98.9236C111.22 116.14 114.239 133.797 122.595 149.107C130.951 164.417 144.167 176.509 160.159 183.472C176.15 190.436 194.006 191.876 210.906 187.564C227.807 183.252 242.79 173.435 253.491 159.661Z"/>
</mask>
<path fill-rule="evenodd" clip-rule="evenodd" d="M253.491 159.661C264.192 145.887 270 128.942 270 111.5C270 111.5 270.5 100.5 259 100C247.5 99.5001 247.187 111.5 247.187 111.5C247.187 123.873 243.066 135.894 235.475 145.664C227.884 155.435 217.255 162.4 205.266 165.458C193.277 168.517 180.611 167.496 169.267 162.556C157.923 157.616 148.548 149.039 142.62 138.178C136.693 127.317 134.551 114.792 136.533 102.579C138.516 90.3656 144.509 79.1605 153.567 70.7321C162.625 62.3037 174.233 57.1322 186.557 56.0338C195.744 55.215 204.939 56.6943 213.335 60.2732L211.426 62.1826C209.838 63.77 209.364 66.157 210.222 68.2313C211.082 70.3052 213.105 71.6576 215.35 71.6576H241.908C244.973 71.6576 247.458 69.1726 247.458 66.1074V39.5502C247.458 37.3053 246.106 35.2816 244.032 34.4225C241.957 33.5629 239.57 34.038 237.983 35.6258L230.332 43.277C216.466 35.3846 200.49 31.8877 184.531 33.31C167.158 34.8585 150.796 42.1487 138.026 54.03C125.257 65.9114 116.809 81.707 114.014 98.9236C111.22 116.14 114.239 133.797 122.595 149.107C130.951 164.417 144.167 176.509 160.159 183.472C176.15 190.436 194.006 191.876 210.906 187.564C227.807 183.252 242.79 173.435 253.491 159.661Z" fill="#F7F7F7"/>
<path d="M270 111.5L269.001 111.455L269 111.478V111.5H270ZM253.491 159.661L254.28 160.274L254.28 160.274L253.491 159.661ZM259 100L258.957 100.999L258.957 100.999L259 100ZM247.187 111.5L246.187 111.474L246.187 111.487V111.5H247.187ZM235.475 145.664L236.265 146.278L236.265 146.278L235.475 145.664ZM205.266 165.458L205.514 166.427L205.514 166.427L205.266 165.458ZM169.267 162.556L168.868 163.473L168.868 163.473L169.267 162.556ZM142.62 138.178L143.498 137.699L143.498 137.699L142.62 138.178ZM136.533 102.579L137.52 102.739L137.52 102.739L136.533 102.579ZM153.567 70.7321L152.886 70L152.886 70L153.567 70.7321ZM186.557 56.0338L186.645 57.0298L186.645 57.0298L186.557 56.0338ZM213.335 60.2732L214.042 60.9803L215.089 59.9336L213.727 59.3533L213.335 60.2732ZM211.426 62.1826L210.719 61.4755L210.719 61.4755L211.426 62.1826ZM210.222 68.2313L209.299 68.6138L209.299 68.614L210.222 68.2313ZM244.032 34.4225L243.649 35.3463L243.649 35.3463L244.032 34.4225ZM237.983 35.6258L238.69 36.3329L238.69 36.3327L237.983 35.6258ZM230.332 43.277L229.837 44.1461L230.5 44.5233L231.039 43.9841L230.332 43.277ZM184.531 33.31L184.62 34.3061L184.531 33.31ZM138.026 54.03L138.708 54.7621L138.026 54.03ZM114.014 98.9236L113.027 98.7634L113.027 98.7634L114.014 98.9236ZM122.595 149.107L121.717 149.586L121.717 149.586L122.595 149.107ZM160.159 183.472L159.76 184.389L159.76 184.389L160.159 183.472ZM210.906 187.564L210.659 186.595L210.659 186.595L210.906 187.564ZM269 111.5C269 128.72 263.266 145.449 252.701 159.047L254.28 160.274C265.118 146.325 271 129.164 271 111.5H269ZM258.957 100.999C261.666 101.117 263.601 101.848 264.996 102.827C266.396 103.808 267.309 105.079 267.907 106.361C268.507 107.647 268.783 108.931 268.907 109.9C268.969 110.383 268.992 110.782 269 111.056C269.004 111.192 269.004 111.298 269.003 111.366C269.003 111.4 269.002 111.425 269.002 111.44C269.002 111.448 269.002 111.453 269.001 111.455C269.001 111.456 269.001 111.457 269.001 111.457C269.001 111.457 269.001 111.457 269.001 111.456C269.001 111.456 269.001 111.456 269.001 111.456C269.001 111.455 269.001 111.455 270 111.5C270.999 111.546 270.999 111.545 270.999 111.545C270.999 111.544 270.999 111.544 270.999 111.543C271 111.542 271 111.541 271 111.54C271 111.537 271 111.533 271 111.529C271 111.521 271.001 111.511 271.001 111.497C271.002 111.471 271.003 111.434 271.003 111.387C271.004 111.294 271.004 111.162 270.999 110.997C270.989 110.668 270.962 110.203 270.891 109.647C270.749 108.539 270.431 107.041 269.719 105.515C269.005 103.984 267.886 102.411 266.145 101.189C264.4 99.9649 262.085 99.1333 259.044 99.0011L258.957 100.999ZM247.187 111.5C248.186 111.526 248.186 111.527 248.186 111.527C248.186 111.527 248.186 111.528 248.186 111.528C248.186 111.528 248.186 111.528 248.186 111.528C248.186 111.528 248.186 111.527 248.186 111.525C248.186 111.522 248.187 111.516 248.187 111.507C248.188 111.49 248.189 111.462 248.191 111.424C248.196 111.347 248.204 111.231 248.218 111.08C248.247 110.778 248.3 110.342 248.398 109.817C248.596 108.762 248.969 107.378 249.67 106.021C250.368 104.668 251.378 103.366 252.842 102.428C254.298 101.496 256.265 100.882 258.957 100.999L259.044 99.0011C255.985 98.8681 253.602 99.5667 251.764 100.744C249.934 101.916 248.71 103.52 247.892 105.104C247.077 106.685 246.653 108.269 246.432 109.449C246.322 110.041 246.26 110.538 246.227 110.891C246.21 111.068 246.2 111.208 246.195 111.308C246.192 111.357 246.19 111.396 246.189 111.424C246.188 111.438 246.188 111.449 246.187 111.458C246.187 111.462 246.187 111.465 246.187 111.468C246.187 111.47 246.187 111.471 246.187 111.472C246.187 111.472 246.187 111.473 246.187 111.473C246.187 111.474 246.187 111.474 247.187 111.5ZM236.265 146.278C243.992 136.332 248.187 124.095 248.187 111.5H246.187C246.187 123.651 242.14 135.456 234.685 145.051L236.265 146.278ZM205.514 166.427C217.718 163.314 228.537 156.224 236.265 146.278L234.685 145.051C227.231 154.646 216.793 161.486 205.019 164.489L205.514 166.427ZM168.868 163.473C180.416 168.501 193.309 169.541 205.514 166.427L205.019 164.489C193.246 167.493 180.807 166.49 169.667 161.639L168.868 163.473ZM141.742 138.657C147.776 149.713 157.32 158.444 168.868 163.473L169.667 161.639C158.526 156.788 149.319 148.364 143.498 137.699L141.742 138.657ZM135.546 102.418C133.528 114.851 135.708 127.601 141.742 138.657L143.498 137.699C137.677 127.033 135.574 114.733 137.52 102.739L135.546 102.418ZM152.886 70C143.665 78.5797 137.564 89.986 135.546 102.418L137.52 102.739C139.467 90.7451 145.353 79.7412 154.248 71.4642L152.886 70ZM186.468 55.0377C173.923 56.1559 162.107 61.4203 152.886 70L154.248 71.4642C163.144 63.1872 174.543 58.1085 186.645 57.0298L186.468 55.0377ZM213.727 59.3533C205.18 55.7101 195.82 54.2042 186.468 55.0377L186.645 57.0298C195.667 56.2257 204.697 57.6785 212.943 61.1931L213.727 59.3533ZM212.133 62.8897L214.042 60.9803L212.628 59.5661L210.719 61.4755L212.133 62.8897ZM211.146 67.8487C210.442 66.148 210.832 64.191 212.133 62.8897L210.719 61.4755C208.845 63.3489 208.285 66.1659 209.299 68.6138L211.146 67.8487ZM215.35 70.6576C213.51 70.6576 211.851 69.5489 211.146 67.8485L209.299 68.614C210.313 71.0615 212.701 72.6576 215.35 72.6576V70.6576ZM241.908 70.6576H215.35V72.6576H241.908V70.6576ZM246.458 66.1074C246.458 68.6203 244.421 70.6576 241.908 70.6576V72.6576C245.525 72.6576 248.458 69.7249 248.458 66.1074H246.458ZM246.458 39.5502V66.1074H248.458V39.5502H246.458ZM243.649 35.3463C245.35 36.0507 246.458 37.7097 246.458 39.5502H248.458C248.458 36.9008 246.862 34.5125 244.414 33.4986L243.649 35.3463ZM238.69 36.3327C239.991 35.0311 241.948 34.6416 243.649 35.3463L244.414 33.4986C241.966 32.4842 239.149 33.0449 237.276 34.9188L238.69 36.3327ZM231.039 43.9841L238.69 36.3329L237.276 34.9186L229.624 42.5699L231.039 43.9841ZM184.62 34.3061C200.375 32.9019 216.148 36.3543 229.837 44.1461L230.826 42.4079C216.784 34.415 200.604 30.8735 184.443 32.314L184.62 34.3061ZM138.708 54.7621C151.314 43.0322 167.468 35.8348 184.62 34.3061L184.443 32.314C166.848 33.8821 150.277 41.2653 137.345 53.2979L138.708 54.7621ZM115.001 99.0838C117.76 82.0866 126.101 66.4921 138.708 54.7621L137.345 53.2979C124.413 65.3306 115.857 81.3275 113.027 98.7634L115.001 99.0838ZM123.472 148.628C115.223 133.513 112.242 116.081 115.001 99.0838L113.027 98.7634C110.197 116.199 113.255 134.081 121.717 149.586L123.472 148.628ZM160.558 182.556C144.77 175.681 131.722 163.743 123.472 148.628L121.717 149.586C130.179 165.092 143.564 177.337 159.76 184.389L160.558 182.556ZM210.659 186.595C193.974 190.852 176.346 189.431 160.558 182.556L159.76 184.389C175.955 191.442 194.037 192.9 211.153 188.533L210.659 186.595ZM252.701 159.047C242.137 172.646 227.344 182.338 210.659 186.595L211.153 188.533C228.269 184.166 243.443 174.224 254.28 160.274L252.701 159.047Z" fill="#6C87A3" mask="url(#path-2-inside-1)"/>
</g>
<g filter="url(#filter1_dd)">
<path fill-rule="evenodd" clip-rule="evenodd" d="M218.783 113.145H192.936V87.2968C192.936 82.0501 188.682 77.7966 183.436 77.7966C178.189 77.7966 173.935 82.0501 173.935 87.2968V122.645C173.935 127.892 178.189 132.145 183.436 132.145H218.783C224.03 132.145 228.284 127.892 228.284 122.645C228.284 117.398 224.03 113.145 218.783 113.145Z" fill="#F7F7F7"/>
<path d="M218.783 112.645H193.436V87.2968C193.436 81.7739 188.958 77.2966 183.436 77.2966C177.913 77.2966 173.435 81.7739 173.435 87.2968V122.645C173.435 128.168 177.913 132.645 183.436 132.645H218.783C224.306 132.645 228.784 128.168 228.784 122.645C228.784 117.122 224.306 112.645 218.783 112.645Z" stroke="#6C87A3"/>
</g>
<rect x="-15" y="-34" width="285" height="274" fill="url(#paint0_radial)"/>
</g>
<defs>
<filter id="filter0_dd" x="83" y="3" width="217.004" height="217" filterUnits="userSpaceOnUse" color-interpolation-filters="sRGB">
<feFlood flood-opacity="0" result="BackgroundImageFix"/>
<feColorMatrix in="SourceAlpha" type="matrix" values="0 0 0 0 0 0 0 0 0 0 0 0 0 0 0 0 0 0 127 0"/>
<feOffset dx="-10" dy="-10"/>
<feGaussianBlur stdDeviation="10"/>
<feColorMatrix type="matrix" values="0 0 0 0 1 0 0 0 0 1 0 0 0 0 1 0 0 0 1 0"/>
<feBlend mode="normal" in2="BackgroundImageFix" result="effect1_dropShadow"/>
<feColorMatrix in="SourceAlpha" type="matrix" values="0 0 0 0 0 0 0 0 0 0 0 0 0 0 0 0 0 0 127 0"/>
<feOffset dx="10" dy="10"/>
<feGaussianBlur stdDeviation="10"/>
<feColorMatrix type="matrix" values="0 0 0 0 0 0 0 0 0 0 0 0 0 0 0 0 0 0 0.15 0"/>
<feBlend mode="normal" in2="effect1_dropShadow" result="effect2_dropShadow"/>
<feBlend mode="normal" in="SourceGraphic" in2="effect2_dropShadow" result="shape"/>
</filter>
<filter id="filter1_dd" x="142.935" y="46.7966" width="116.348" height="116.348" filterUnits="userSpaceOnUse" color-interpolation-filters="sRGB">
<feFlood flood-opacity="0" result="BackgroundImageFix"/>
<feColorMatrix in="SourceAlpha" type="matrix" values="0 0 0 0 0 0 0 0 0 0 0 0 0 0 0 0 0 0 127 0"/>
<feOffset dx="-10" dy="-10"/>
<feGaussianBlur stdDeviation="10"/>
<feColorMatrix type="matrix" values="0 0 0 0 1 0 0 0 0 1 0 0 0 0 1 0 0 0 1 0"/>
<feBlend mode="normal" in2="BackgroundImageFix" result="effect1_dropShadow"/>
<feColorMatrix in="SourceAlpha" type="matrix" values="0 0 0 0 0 0 0 0 0 0 0 0 0 0 0 0 0 0 127 0"/>
<feOffset dx="10" dy="10"/>
<feGaussianBlur stdDeviation="10"/>
<feColorMatrix type="matrix" values="0 0 0 0 0 0 0 0 0 0 0 0 0 0 0 0 0 0 0.15 0"/>
<feBlend mode="normal" in2="effect1_dropShadow" result="effect2_dropShadow"/>
<feBlend mode="normal" in="SourceGraphic" in2="effect2_dropShadow" result="shape"/>
</filter>
<radialGradient id="paint0_radial" cx="0" cy="0" r="1" gradientUnits="userSpaceOnUse" gradientTransform="translate(127.5 103) rotate(90) scale(137 142.5)">
<stop offset="0.84375" stop-color="#F7F7F7" stop-opacity="0"/>
<stop offset="1" stop-color="#F7F7F7"/>
</radialGradient>
</defs>
</svg>
