<svg width="270" height="240" viewBox="0 0 270 240" fill="none" xmlns="http://www.w3.org/2000/svg">
<mask id="mask0" mask-type="alpha" maskUnits="userSpaceOnUse" x="0" y="0" width="270" height="240">
<rect width="270" height="240" fill="#C4C4C4"/>
</mask>
<g mask="url(#mask0)">
<g filter="url(#filter0_dd)">
<path d="M187.666 193.292C187.666 183.523 195.645 175.568 205.455 175.568C215.267 175.568 223.247 183.523 223.247 193.292C223.247 203.064 215.268 211.023 205.455 211.023C195.645 211.023 187.666 203.064 187.666 193.292Z" fill="#F7F7F7" stroke="#6C87A3"/>
<path d="M161.296 151.474L161.296 151.474C156.685 156.064 156.677 163.541 161.278 168.138L161.278 168.138L161.278 168.138C163.514 170.377 166.488 171.606 169.658 171.606C172.812 171.606 175.776 170.383 178.008 168.163C185.346 160.871 195.095 156.853 205.455 156.853C215.853 156.853 225.629 160.896 232.972 168.232L232.972 168.233C235.208 170.465 238.181 171.697 241.347 171.697C244.505 171.697 247.467 170.475 249.701 168.255L249.701 168.255C254.319 163.665 254.327 156.192 249.724 151.591C237.911 139.785 222.189 133.281 205.455 133.281C188.786 133.281 173.106 139.742 161.296 151.474Z" fill="#F7F7F7" stroke="#6C87A3"/>
<path d="M307.045 93.4596L307.045 93.4599C311.655 98.0523 311.651 105.532 307.037 110.125L307.377 110.467L307.037 110.125C304.805 112.348 301.838 113.574 298.678 113.574C295.517 113.574 292.542 112.345 290.308 110.116L289.955 110.47L290.308 110.116C267.652 87.5095 237.515 75.0644 205.455 75.0644C173.441 75.0644 143.335 87.4845 120.684 110.03L120.683 110.031C118.45 112.256 115.483 113.476 112.321 113.476C109.158 113.476 106.188 112.252 103.954 110.024C99.3458 105.427 99.3493 97.9496 103.961 93.3606L103.961 93.3606C131.08 66.3635 167.124 51.5 205.455 51.5C243.838 51.5 279.917 66.3983 307.045 93.4596Z" fill="#F7F7F7" stroke="#6C87A3"/>
<path fill-rule="evenodd" clip-rule="evenodd" d="M205.47 116.189C185.367 116.189 166.558 123.399 152.447 136.395L152.445 136.397C149.922 138.721 146.629 139.939 143.234 139.939C139.833 139.939 136.537 138.715 134.016 136.389L134.015 136.389C128.659 131.445 128.661 123.233 134.024 118.295C153.172 100.658 178.567 91 205.47 91C232.409 91 257.83 100.681 276.984 118.361C282.345 123.305 282.335 131.518 276.976 136.455C274.459 138.773 271.167 140 267.766 140C264.363 140 261.064 138.771 258.545 136.445C244.431 123.415 225.604 116.189 205.47 116.189Z" fill="#F7F7F7"/>
<path fill-rule="evenodd" clip-rule="evenodd" d="M153.124 137.13L153.124 137.13L153.122 137.132C150.406 139.635 146.868 140.939 143.234 140.939C139.594 140.939 136.052 139.629 133.338 137.124L133.338 137.124L133.337 137.124L133.337 137.124C127.552 131.784 127.554 122.894 133.347 117.559C152.688 99.7449 178.327 90 205.47 90C232.649 90 258.315 99.768 277.663 117.626C283.453 122.967 283.441 131.858 277.653 137.19C274.944 139.686 271.408 141 267.766 141C264.123 141 260.578 139.684 257.867 137.18C243.946 124.327 225.364 117.189 205.47 117.189C185.607 117.189 167.043 124.312 153.124 137.13ZM276.984 118.361C257.83 100.681 232.409 91 205.47 91C178.567 91 153.172 100.658 134.024 118.295C128.661 123.233 128.659 131.445 134.015 136.389L134.016 136.389C136.537 138.715 139.833 139.939 143.234 139.939C146.629 139.939 149.922 138.721 152.445 136.397L152.447 136.395C166.558 123.399 185.367 116.189 205.47 116.189C225.604 116.189 244.431 123.415 258.545 136.445C261.064 138.771 264.363 140 267.766 140C271.167 140 274.459 138.773 276.976 136.455C282.335 131.518 282.345 123.305 276.984 118.361Z" fill="#6C87A3"/>
</g>
<rect x="-9" width="279" height="240" fill="url(#paint0_radial)"/>
</g>
<defs>
<filter id="filter0_dd" x="70" y="21" width="271" height="220.523" filterUnits="userSpaceOnUse" color-interpolation-filters="sRGB">
<feFlood flood-opacity="0" result="BackgroundImageFix"/>
<feColorMatrix in="SourceAlpha" type="matrix" values="0 0 0 0 0 0 0 0 0 0 0 0 0 0 0 0 0 0 127 0"/>
<feOffset dx="-10" dy="-10"/>
<feGaussianBlur stdDeviation="10"/>
<feColorMatrix type="matrix" values="0 0 0 0 1 0 0 0 0 1 0 0 0 0 1 0 0 0 1 0"/>
<feBlend mode="normal" in2="BackgroundImageFix" result="effect1_dropShadow"/>
<feColorMatrix in="SourceAlpha" type="matrix" values="0 0 0 0 0 0 0 0 0 0 0 0 0 0 0 0 0 0 127 0"/>
<feOffset dx="10" dy="10"/>
<feGaussianBlur stdDeviation="10"/>
<feColorMatrix type="matrix" values="0 0 0 0 0 0 0 0 0 0 0 0 0 0 0 0 0 0 0.15 0"/>
<feBlend mode="normal" in2="effect1_dropShadow" result="effect2_dropShadow"/>
<feBlend mode="normal" in="SourceGraphic" in2="effect2_dropShadow" result="shape"/>
</filter>
<radialGradient id="paint0_radial" cx="0" cy="0" r="1" gradientUnits="userSpaceOnUse" gradientTransform="translate(130.5 120) rotate(90) scale(120 139.5)">
<stop offset="0.84375" stop-color="#F7F7F7" stop-opacity="0"/>
<stop offset="1" stop-color="#F7F7F7"/>
</radialGradient>
</defs>
</svg>
