<svg width="270" height="240" viewBox="0 0 270 240" fill="none" xmlns="http://www.w3.org/2000/svg">
<mask id="mask0" mask-type="alpha" maskUnits="userSpaceOnUse" x="0" y="0" width="270" height="240">
<rect width="270" height="240" fill="#C4C4C4"/>
</mask>
<g mask="url(#mask0)">
<g filter="url(#filter0_dd)">
<path d="M237.896 169.491C233.879 181 227.024 189.259 217.332 194.268C207.64 199.278 196.301 200.646 183.315 198.372C182.492 198.408 181.98 198.713 181.779 199.289L177.1 213.391C176.849 214.11 176.359 214.585 175.63 214.815C174.996 215.239 174.318 215.325 173.595 215.073L151.919 207.507C151.196 207.254 150.646 206.74 150.269 205.962C149.986 205.38 149.971 204.728 150.222 204.009L155.41 189.842C155.61 189.267 155.4 188.709 154.778 188.169C143.348 181.436 135.424 173.022 131.004 162.925C126.729 152.88 126.6 142.102 130.617 130.593L132.274 125.846C132.525 125.126 132.943 124.627 133.527 124.346C134.306 123.973 135.057 123.912 135.779 124.164L159.19 132.335C159.912 132.588 160.39 133.077 160.622 133.804C161.05 134.437 161.138 135.114 160.887 135.833L159.757 139.07C157.749 144.824 158.57 150.598 162.222 156.392C165.924 162.041 172.182 166.405 180.997 169.482C188.367 172.054 194.339 172.363 198.912 170.409C203.679 168.361 206.892 164.963 208.549 160.216C209.754 156.763 209.674 153.507 208.31 150.449C206.996 147.247 204.69 144.102 201.39 141.013C198.286 137.832 193.168 133.221 186.035 127.181C177.797 120.593 171.102 114.464 165.948 108.792C160.795 103.12 157.008 96.5525 154.587 89.0905C152.361 81.5351 152.779 73.3696 155.842 64.594C159.709 53.5166 166.221 45.5414 175.379 40.6685C184.732 35.7022 195.493 34.1325 207.663 35.9593C208.486 35.9238 208.998 35.6183 209.198 35.0428L214.263 19.1386C214.514 18.4193 214.932 17.9195 215.516 17.6392C216.295 17.2655 217.046 17.2048 217.768 17.457L239.445 25.0229C240.167 25.2751 240.645 25.7646 240.877 26.4914C241.305 27.1247 241.393 27.8011 241.142 28.5204L235.276 44.6292C235.075 45.2047 235.286 45.7624 235.908 46.3023C247.048 52.9345 254.753 61.5145 259.022 72.0423C263.341 82.4263 263.492 93.3728 259.475 104.882L258.345 108.119C258.094 108.838 257.579 109.384 256.8 109.758C256.216 110.038 255.563 110.052 254.84 109.8L231.213 101.553C230.49 101.301 229.915 100.858 229.488 100.225C229.255 99.4983 229.265 98.7752 229.516 98.0559L230.118 96.3296C232.227 90.2874 231.626 84.348 228.313 78.5115C225.051 72.5311 219.301 68.1034 211.064 65.2283C204.561 62.9585 199.001 62.6317 194.384 64.248C189.767 65.8642 186.58 69.1899 184.822 74.2251C183.567 77.8217 183.524 81.1959 184.694 84.3477C186.008 87.55 188.408 90.8895 191.896 94.3663C195.384 97.8431 200.983 102.702 208.693 108.944C217.12 115.92 223.649 121.83 228.281 126.675C232.912 131.519 236.463 137.601 238.935 144.919C241.406 152.237 241.06 160.428 237.896 169.491Z" fill="#F7F7F7"/>
<path d="M177.572 213.556L177.575 213.548L182.251 199.454C182.252 199.452 182.252 199.451 182.252 199.45C182.315 199.272 182.418 199.148 182.57 199.057C182.725 198.965 182.954 198.895 183.284 198.874C196.332 201.149 207.768 199.775 217.562 194.712C227.381 189.637 234.314 181.27 238.368 169.656C241.559 160.513 241.923 152.206 239.408 144.759C236.917 137.382 233.331 131.234 228.642 126.329C223.991 121.465 217.446 115.541 209.012 108.559L209.008 108.556C201.3 102.316 195.718 97.4701 192.249 94.0122C188.793 90.5669 186.441 87.284 185.159 84.1658C184.039 81.1398 184.073 77.8891 185.295 74.3899C187.007 69.4836 190.09 66.2809 194.549 64.7199C199.024 63.1537 204.46 63.4529 210.899 65.7004C219.053 68.5464 224.686 72.9073 227.874 78.7509L227.874 78.7509L227.878 78.7582C231.123 84.4763 231.705 90.2661 229.646 96.1648L229.044 97.8912C228.757 98.7131 228.746 99.5475 229.012 100.377L229.034 100.446L229.074 100.505C229.561 101.228 230.224 101.738 231.048 102.025L254.675 110.272C255.498 110.56 256.292 110.557 257.016 110.209C257.898 109.786 258.516 109.146 258.817 108.283L259.947 105.047C264.001 93.4327 263.854 82.3593 259.484 71.8524C255.174 61.223 247.402 52.5724 236.203 45.8964C235.953 45.6725 235.815 45.4726 235.751 45.3024C235.689 45.1369 235.685 44.9753 235.747 44.7968C235.747 44.7959 235.748 44.7949 235.748 44.794L241.612 28.6915L241.614 28.6851C241.909 27.8389 241.813 27.019 241.331 26.2712C241.042 25.4308 240.457 24.8468 239.609 24.5509L217.933 16.9849C217.069 16.6834 216.181 16.7656 215.3 17.1884C214.575 17.5363 214.078 18.1527 213.791 18.9738L213.791 18.9737L213.787 18.9869L208.724 34.8838C208.661 35.0604 208.559 35.184 208.408 35.2742C208.252 35.3671 208.021 35.4379 207.687 35.4574C195.45 33.6291 184.594 35.2094 175.145 40.2269L175.145 40.2271C165.861 45.167 159.273 53.2498 155.37 64.4292C152.279 73.2853 151.847 81.559 154.108 89.2318L154.107 89.2319L154.112 89.2448C156.554 96.7726 160.376 103.402 165.578 109.128C170.754 114.824 177.469 120.97 185.718 127.567C192.845 133.603 197.946 138.2 201.033 141.362L201.04 141.371L201.049 141.378C204.311 144.432 206.568 147.52 207.848 150.639L207.85 150.646L207.853 150.653C209.161 153.584 209.244 156.706 208.077 160.051C206.468 164.661 203.358 167.954 198.715 169.949C194.307 171.833 188.479 171.563 181.162 169.01C172.414 165.956 166.265 161.648 162.643 156.122C159.063 150.44 158.278 144.825 160.229 139.235L161.359 135.998C161.654 135.151 161.558 134.332 161.076 133.584C160.787 132.743 160.202 132.159 159.354 131.863L135.944 123.692C135.08 123.391 134.192 123.473 133.311 123.896C132.586 124.243 132.089 124.86 131.802 125.681L130.145 130.428C126.092 142.04 126.214 152.947 130.544 163.121L130.546 163.126C135.01 173.325 143.004 181.805 154.483 188.576C154.733 188.8 154.87 188.999 154.935 189.169C154.997 189.335 155 189.496 154.939 189.674C154.938 189.675 154.938 189.677 154.938 189.678L149.752 203.837L149.75 203.844C149.463 204.665 149.468 205.457 149.819 206.181C150.246 207.06 150.89 207.677 151.754 207.979L173.43 215.545C174.278 215.841 175.099 215.747 175.849 215.269C176.691 214.984 177.277 214.402 177.572 213.556Z" stroke="#6C87A3"/>
</g>
<rect x="-15" width="285" height="240" fill="url(#paint0_radial)"/>
</g>
<defs>
<filter id="filter0_dd" x="77.7263" y="-28.646" width="236.561" height="290.049" filterUnits="userSpaceOnUse" color-interpolation-filters="sRGB">
<feFlood flood-opacity="0" result="BackgroundImageFix"/>
<feColorMatrix in="SourceAlpha" type="matrix" values="0 0 0 0 0 0 0 0 0 0 0 0 0 0 0 0 0 0 127 0"/>
<feOffset dx="-10" dy="-10"/>
<feGaussianBlur stdDeviation="10"/>
<feColorMatrix type="matrix" values="0 0 0 0 1 0 0 0 0 1 0 0 0 0 1 0 0 0 1 0"/>
<feBlend mode="normal" in2="BackgroundImageFix" result="effect1_dropShadow"/>
<feColorMatrix in="SourceAlpha" type="matrix" values="0 0 0 0 0 0 0 0 0 0 0 0 0 0 0 0 0 0 127 0"/>
<feOffset dx="10" dy="10"/>
<feGaussianBlur stdDeviation="10"/>
<feColorMatrix type="matrix" values="0 0 0 0 0 0 0 0 0 0 0 0 0 0 0 0 0 0 0.15 0"/>
<feBlend mode="normal" in2="effect1_dropShadow" result="effect2_dropShadow"/>
<feBlend mode="normal" in="SourceGraphic" in2="effect2_dropShadow" result="shape"/>
</filter>
<radialGradient id="paint0_radial" cx="0" cy="0" r="1" gradientUnits="userSpaceOnUse" gradientTransform="translate(127.5 120) rotate(90) scale(120 142.5)">
<stop offset="0.71875" stop-color="#F7F7F7" stop-opacity="0"/>
<stop offset="1" stop-color="#F7F7F7"/>
</radialGradient>
</defs>
</svg>
