<svg width="270" height="240" viewBox="0 0 270 240" fill="none" xmlns="http://www.w3.org/2000/svg">
<mask id="mask0" mask-type="alpha" maskUnits="userSpaceOnUse" x="0" y="0" width="270" height="240">
<rect width="270" height="240" fill="#C4C4C4"/>
</mask>
<g mask="url(#mask0)">
<g filter="url(#filter0_dd)">
<path d="M260.892 204.274L225.703 150.803C251.141 126.912 252.549 86.9303 228.789 61.303C204.932 35.5721 164.731 34.0512 138.999 57.9124C113.268 81.769 111.748 121.965 135.61 147.697C152.55 165.968 178.585 172.641 202.205 164.806L237.969 219.238C237.971 219.24 237.972 219.243 237.973 219.245C241.945 225.676 250.376 227.67 256.811 223.702C263.246 219.737 265.243 211.303 261.279 204.868C261.155 204.664 261.031 204.475 260.895 204.279C260.894 204.277 260.893 204.276 260.892 204.274ZM173.886 143.864C152.183 139.309 138.282 118.031 142.828 96.3257C147.384 74.6228 168.662 60.7221 190.37 65.2737C212.046 69.8184 225.943 91.0663 221.431 112.749C216.908 134.464 195.633 148.394 173.914 143.87L173.914 143.87L173.914 143.87L173.914 143.87L173.913 143.87L173.913 143.87L173.913 143.869L173.913 143.869L173.913 143.869L173.913 143.869L173.913 143.869L173.913 143.869L173.913 143.869L173.913 143.869L173.912 143.869L173.912 143.869L173.912 143.869L173.912 143.869L173.912 143.869L173.912 143.869L173.912 143.869L173.912 143.869L173.912 143.869L173.912 143.869L173.911 143.869L173.911 143.869L173.911 143.869L173.911 143.869L173.911 143.869L173.911 143.869L173.911 143.869L173.911 143.869L173.911 143.869L173.911 143.869L173.91 143.869L173.91 143.869L173.91 143.869L173.91 143.869L173.91 143.869L173.91 143.869L173.91 143.869L173.91 143.869L173.91 143.869L173.91 143.869L173.909 143.869L173.909 143.869L173.909 143.869L173.909 143.869L173.909 143.869L173.909 143.869L173.909 143.869L173.909 143.869L173.909 143.869L173.909 143.869L173.909 143.869L173.908 143.868L173.908 143.868L173.908 143.868L173.908 143.868L173.908 143.868L173.908 143.868L173.908 143.868L173.908 143.868L173.908 143.868L173.908 143.868L173.908 143.868L173.907 143.868L173.907 143.868L173.907 143.868L173.907 143.868L173.907 143.868L173.907 143.868L173.907 143.868L173.907 143.868L173.907 143.868L173.907 143.868L173.906 143.868L173.906 143.868L173.906 143.868L173.906 143.868L173.906 143.868L173.906 143.868L173.906 143.868L173.906 143.868L173.906 143.868L173.906 143.868L173.906 143.868L173.905 143.868L173.905 143.868L173.905 143.868L173.905 143.868L173.905 143.868L173.905 143.868L173.905 143.868L173.905 143.868L173.905 143.868L173.905 143.868L173.905 143.868L173.904 143.868L173.904 143.868L173.904 143.868L173.904 143.868L173.904 143.868L173.904 143.868L173.904 143.868L173.904 143.868L173.904 143.867L173.904 143.867L173.904 143.867L173.903 143.867L173.903 143.867L173.903 143.867L173.903 143.867L173.903 143.867L173.903 143.867L173.903 143.867L173.903 143.867L173.903 143.867L173.903 143.867L173.902 143.867L173.902 143.867L173.902 143.867L173.902 143.867L173.902 143.867L173.902 143.867L173.902 143.867L173.902 143.867L173.902 143.867L173.902 143.867L173.902 143.867L173.901 143.867L173.901 143.867L173.901 143.867L173.901 143.867L173.901 143.867L173.901 143.867L173.901 143.867L173.901 143.867L173.901 143.867L173.901 143.867L173.9 143.867L173.9 143.867L173.9 143.867L173.9 143.867L173.9 143.867L173.9 143.867L173.9 143.867L173.9 143.867L173.9 143.867L173.899 143.867L173.899 143.867L173.899 143.867L173.899 143.867L173.899 143.867L173.899 143.866L173.899 143.866L173.899 143.866L173.899 143.866L173.899 143.866L173.899 143.866L173.898 143.866L173.898 143.866L173.898 143.866L173.898 143.866L173.898 143.866L173.898 143.866L173.898 143.866L173.898 143.866L173.898 143.866L173.898 143.866L173.898 143.866L173.898 143.866L173.898 143.866L173.898 143.866L173.897 143.866L173.897 143.866L173.897 143.866L173.897 143.866L173.897 143.866L173.897 143.866L173.897 143.866L173.897 143.866L173.897 143.866L173.897 143.866L173.897 143.866L173.897 143.866L173.897 143.866L173.897 143.866L173.897 143.866L173.897 143.866L173.897 143.866L173.896 143.866L173.896 143.866L173.896 143.866L173.896 143.866L173.896 143.866L173.896 143.866L173.896 143.866L173.896 143.866L173.896 143.866L173.896 143.866L173.896 143.866L173.896 143.866L173.896 143.866L173.896 143.866L173.896 143.866L173.896 143.866L173.896 143.866L173.895 143.866L173.895 143.866L173.895 143.866L173.895 143.866L173.895 143.866L173.895 143.866L173.895 143.866L173.895 143.866L173.895 143.866L173.895 143.866L173.895 143.866L173.895 143.866L173.895 143.866L173.895 143.866L173.895 143.866L173.895 143.866L173.894 143.866L173.894 143.866L173.894 143.866L173.894 143.866L173.894 143.866L173.894 143.865L173.894 143.865L173.894 143.865L173.894 143.865L173.894 143.865L173.894 143.865L173.894 143.865L173.894 143.865L173.894 143.865L173.894 143.865L173.894 143.865L173.893 143.865L173.893 143.865L173.893 143.865L173.893 143.865L173.893 143.865L173.893 143.865L173.893 143.865L173.893 143.865L173.893 143.865L173.893 143.865L173.893 143.865L173.893 143.865L173.893 143.865L173.893 143.865L173.893 143.865L173.892 143.865L173.892 143.865L173.892 143.865L173.892 143.865L173.892 143.865L173.892 143.865L173.892 143.865L173.892 143.865L173.892 143.865L173.892 143.865L173.892 143.865L173.892 143.865L173.892 143.865L173.892 143.865L173.892 143.865L173.891 143.865L173.891 143.865L173.891 143.865L173.891 143.865L173.891 143.865L173.891 143.865L173.891 143.865L173.891 143.865L173.891 143.865L173.891 143.865L173.891 143.865L173.891 143.865L173.891 143.865L173.891 143.865L173.89 143.865L173.89 143.865L173.89 143.865L173.89 143.865L173.89 143.865L173.89 143.865L173.89 143.865L173.89 143.865L173.89 143.865L173.89 143.865L173.89 143.865L173.89 143.865L173.89 143.865L173.89 143.865L173.889 143.864L173.889 143.864L173.889 143.864L173.889 143.864L173.889 143.864L173.889 143.864L173.889 143.864L173.889 143.864L173.889 143.864L173.889 143.864L173.889 143.864L173.889 143.864L173.889 143.864L173.888 143.864L173.888 143.864L173.888 143.864L173.888 143.864L173.888 143.864L173.888 143.864L173.888 143.864L173.888 143.864L173.888 143.864L173.888 143.864L173.888 143.864L173.888 143.864L173.888 143.864L173.887 143.864L173.887 143.864L173.887 143.864L173.887 143.864L173.887 143.864L173.887 143.864L173.887 143.864L173.887 143.864L173.887 143.864L173.887 143.864L173.887 143.864L173.887 143.864L173.886 143.864L173.886 143.864Z" fill="#F7F7F7" stroke="#6C87A3"/>
</g>
<rect x="-15" width="285" height="240" fill="url(#paint0_radial)"/>
</g>
<defs>
<filter id="filter0_dd" x="88.1617" y="10.4651" width="205.654" height="245.778" filterUnits="userSpaceOnUse" color-interpolation-filters="sRGB">
<feFlood flood-opacity="0" result="BackgroundImageFix"/>
<feColorMatrix in="SourceAlpha" type="matrix" values="0 0 0 0 0 0 0 0 0 0 0 0 0 0 0 0 0 0 127 0"/>
<feOffset dx="-10" dy="-10"/>
<feGaussianBlur stdDeviation="10"/>
<feColorMatrix type="matrix" values="0 0 0 0 1 0 0 0 0 1 0 0 0 0 1 0 0 0 1 0"/>
<feBlend mode="normal" in2="BackgroundImageFix" result="effect1_dropShadow"/>
<feColorMatrix in="SourceAlpha" type="matrix" values="0 0 0 0 0 0 0 0 0 0 0 0 0 0 0 0 0 0 127 0"/>
<feOffset dx="10" dy="10"/>
<feGaussianBlur stdDeviation="10"/>
<feColorMatrix type="matrix" values="0 0 0 0 0 0 0 0 0 0 0 0 0 0 0 0 0 0 0.15 0"/>
<feBlend mode="normal" in2="effect1_dropShadow" result="effect2_dropShadow"/>
<feBlend mode="normal" in="SourceGraphic" in2="effect2_dropShadow" result="shape"/>
</filter>
<radialGradient id="paint0_radial" cx="0" cy="0" r="1" gradientUnits="userSpaceOnUse" gradientTransform="translate(127.5 120) rotate(90) scale(120 142.5)">
<stop offset="0.84375" stop-color="#F7F7F7" stop-opacity="0"/>
<stop offset="1" stop-color="#F7F7F7"/>
</radialGradient>
</defs>
</svg>
