<svg width="270" height="240" viewBox="0 0 270 240" fill="none" xmlns="http://www.w3.org/2000/svg">
<mask id="mask0" mask-type="alpha" maskUnits="userSpaceOnUse" x="0" y="0" width="270" height="240">
<rect width="270" height="240" fill="#C4C4C4"/>
</mask>
<g mask="url(#mask0)">
<g filter="url(#filter0_dd)">
<path d="M243.265 198C246.026 198 248.265 195.761 248.265 193V158.408C248.265 155.646 250.504 153.408 253.265 153.408H254.457C266.888 153.408 277 143.295 277 130.863C277 118.433 266.888 108.321 254.457 108.321H253.265C250.504 108.321 248.265 106.082 248.265 103.321V68.7282C248.265 65.9668 246.026 63.7282 243.265 63.7282H208.675C205.914 63.7282 203.675 61.4896 203.675 58.7282V56.5446C203.675 44.1124 193.563 34 181.132 34C168.702 34 158.59 44.1124 158.59 56.5446V58.7282C158.59 61.4896 156.351 63.7282 153.59 63.7282H119C116.239 63.7282 114 65.9668 114 68.7282V103.321C114 106.082 116.239 108.321 119 108.321H120.194C130.728 108.321 139.596 115.583 142.056 125.365C142.228 126.05 142.526 126.697 142.854 127.323C143.41 128.383 143.727 129.586 143.727 130.863C143.727 132.142 143.409 133.346 142.853 134.406C142.525 135.031 142.228 135.677 142.056 136.361C139.597 146.142 130.728 153.408 120.194 153.408H119C116.239 153.408 114 155.646 114 158.408V193C114 195.761 116.239 198 119 198H153.59C156.351 198 158.59 195.761 158.59 193V190.814C158.59 178.384 168.702 168.272 181.132 168.272C193.563 168.272 203.675 178.384 203.675 190.814V193C203.675 195.761 205.914 198 208.675 198H243.265Z" fill="#F7F7F7"/>
<path d="M247.765 158.408V193C247.765 195.485 245.75 197.5 243.265 197.5H208.675C206.19 197.5 204.175 195.485 204.175 193V190.814C204.175 178.108 193.839 167.772 181.132 167.772C168.426 167.772 158.09 178.108 158.09 190.814V193C158.09 195.485 156.075 197.5 153.59 197.5H119C116.515 197.5 114.5 195.485 114.5 193V158.408C114.5 155.922 116.515 153.908 119 153.908H120.194C130.963 153.908 140.027 146.481 142.541 136.483C142.699 135.856 142.975 135.251 143.296 134.639C143.888 133.509 144.227 132.225 144.227 130.863C144.227 129.502 143.889 128.219 143.297 127.091C142.975 126.477 142.699 125.871 142.541 125.243C140.026 115.245 130.963 107.821 120.194 107.821H119C116.515 107.821 114.5 105.806 114.5 103.321V68.7282C114.5 66.2429 116.515 64.2282 119 64.2282H153.59C156.628 64.2282 159.09 61.7658 159.09 58.7282V56.5446C159.09 44.3885 168.978 34.5 181.132 34.5C193.287 34.5 203.175 44.3885 203.175 56.5446V58.7282C203.175 61.7658 205.637 64.2282 208.675 64.2282H243.265C245.75 64.2282 247.765 66.2429 247.765 68.7282V103.321C247.765 106.358 250.227 108.821 253.265 108.821H254.457C266.612 108.821 276.5 118.709 276.5 130.863C276.5 143.019 266.612 152.908 254.457 152.908H253.265C250.227 152.908 247.765 155.37 247.765 158.408Z" stroke="#6C87A3" stroke-width="0.999998"/>
</g>
<rect x="-15" width="285" height="240" fill="url(#paint0_radial)"/>
</g>
<defs>
<filter id="filter0_dd" x="84" y="4" width="223" height="224" filterUnits="userSpaceOnUse" color-interpolation-filters="sRGB">
<feFlood flood-opacity="0" result="BackgroundImageFix"/>
<feColorMatrix in="SourceAlpha" type="matrix" values="0 0 0 0 0 0 0 0 0 0 0 0 0 0 0 0 0 0 127 0"/>
<feOffset dx="-10" dy="-10"/>
<feGaussianBlur stdDeviation="10"/>
<feColorMatrix type="matrix" values="0 0 0 0 1 0 0 0 0 1 0 0 0 0 1 0 0 0 1 0"/>
<feBlend mode="normal" in2="BackgroundImageFix" result="effect1_dropShadow"/>
<feColorMatrix in="SourceAlpha" type="matrix" values="0 0 0 0 0 0 0 0 0 0 0 0 0 0 0 0 0 0 127 0"/>
<feOffset dx="10" dy="10"/>
<feGaussianBlur stdDeviation="10"/>
<feColorMatrix type="matrix" values="0 0 0 0 0 0 0 0 0 0 0 0 0 0 0 0 0 0 0.15 0"/>
<feBlend mode="normal" in2="effect1_dropShadow" result="effect2_dropShadow"/>
<feBlend mode="normal" in="SourceGraphic" in2="effect2_dropShadow" result="shape"/>
</filter>
<radialGradient id="paint0_radial" cx="0" cy="0" r="1" gradientUnits="userSpaceOnUse" gradientTransform="translate(127.5 120) rotate(90) scale(120 142.5)">
<stop offset="0.84375" stop-color="#F7F7F7" stop-opacity="0"/>
<stop offset="1" stop-color="#F7F7F7"/>
</radialGradient>
</defs>
</svg>
