<svg width="270" height="240" viewBox="0 0 270 240" fill="none" xmlns="http://www.w3.org/2000/svg">
<mask id="mask0" mask-type="alpha" maskUnits="userSpaceOnUse" x="0" y="0" width="270" height="240">
<rect width="270" height="240" fill="#C4C4C4"/>
</mask>
<g mask="url(#mask0)">
<g filter="url(#filter0_dd)">
<g clip-path="url(#clip0)">
<path d="M257.289 10.777L257.29 10.7755C264.071 2.97283 271.163 -4.542 278.247 -12.048C278.49 -12.306 278.733 -12.564 278.977 -12.822C281.218 -15.0234 283.594 -17.0833 286.091 -18.9897C286.583 -19.3014 287.105 -19.5645 287.647 -19.7756L287.905 -19.2772C287.429 -17.48 286.989 -15.689 286.551 -13.9077C285.639 -10.1978 284.738 -6.53022 283.546 -2.93798C280.252 6.91617 276.775 16.6919 273.018 26.3367L273.018 26.338C268.457 38.1419 263.672 49.8645 258.664 61.5058C254.842 70.3557 250.731 78.9987 246.457 87.5293C243.882 92.6592 241.08 97.6581 238.276 102.661C237.179 104.62 236.081 106.579 234.996 108.547C231.628 114.364 226.77 119.177 220.924 122.489L220.917 122.493L220.91 122.497C219.758 123.201 218.673 124.022 217.622 124.817C217.235 125.11 216.851 125.4 216.471 125.68C215.64 125.031 214.827 124.368 214.018 123.709C212.095 122.142 210.2 120.598 208.159 119.317L208.154 119.314C203.55 116.498 198.792 113.875 194.064 111.269L194.059 111.266L194.053 111.263C193.271 110.845 192.786 110.544 192.516 110.226C192.392 110.08 192.322 109.939 192.291 109.784C192.259 109.626 192.262 109.422 192.33 109.146L192.332 109.137C192.713 107.44 193.015 105.692 193.315 103.96C193.486 102.97 193.656 101.985 193.84 101.019C194.348 98.3398 194.965 95.7543 195.998 93.3888C198.827 87.235 202.278 81.3865 206.296 75.9347L206.296 75.9347L206.3 75.9293C215.24 63.4567 224.181 51.1191 233.529 39.1353C241.031 29.5417 249.141 20.0779 257.289 10.777Z" fill="#F7F7F7" stroke="#6C87A3"/>
<path d="M170.715 132.388L170.715 132.387C174.393 127.885 179.563 124.853 185.283 123.845C186.784 123.649 188.31 123.819 189.73 124.341C196.468 126.882 202.442 131.108 207.082 136.617C208.211 138.131 208.717 140.022 208.494 141.9L208.489 141.941L208.491 141.982C208.853 150.056 207.746 158.132 205.224 165.815C203.362 171.435 200.328 176.597 196.324 180.959C192.319 185.321 187.436 188.783 181.996 191.115L181.996 191.115L181.986 191.119C169.328 196.885 155.765 197.994 141.969 197.075C145.522 194.408 148.5 191.043 150.716 187.182C156.522 177.936 159.014 167.648 160.458 157.017L160.459 157.009L160.46 157.001C161.402 147.973 164.967 139.416 170.715 132.388Z" fill="#F7F7F7" stroke="#6C87A3"/>
</g>
</g>
<rect x="-15" width="300" height="240" fill="url(#paint0_radial)"/>
</g>
<defs>
<filter id="filter0_dd" x="95.0001" y="-75" width="244.245" height="327.906" filterUnits="userSpaceOnUse" color-interpolation-filters="sRGB">
<feFlood flood-opacity="0" result="BackgroundImageFix"/>
<feColorMatrix in="SourceAlpha" type="matrix" values="0 0 0 0 0 0 0 0 0 0 0 0 0 0 0 0 0 0 127 0"/>
<feOffset dx="10" dy="10"/>
<feGaussianBlur stdDeviation="12.5"/>
<feColorMatrix type="matrix" values="0 0 0 0 0 0 0 0 0 0 0 0 0 0 0 0 0 0 0.15 0"/>
<feBlend mode="normal" in2="BackgroundImageFix" result="effect1_dropShadow"/>
<feColorMatrix in="SourceAlpha" type="matrix" values="0 0 0 0 0 0 0 0 0 0 0 0 0 0 0 0 0 0 127 0"/>
<feOffset dx="-15" dy="-15"/>
<feGaussianBlur stdDeviation="12.5"/>
<feColorMatrix type="matrix" values="0 0 0 0 1 0 0 0 0 1 0 0 0 0 1 0 0 0 1 0"/>
<feBlend mode="normal" in2="effect1_dropShadow" result="effect2_dropShadow"/>
<feBlend mode="normal" in="SourceGraphic" in2="effect2_dropShadow" result="shape"/>
</filter>
<radialGradient id="paint0_radial" cx="0" cy="0" r="1" gradientUnits="userSpaceOnUse" gradientTransform="translate(135 120) rotate(90) scale(120 150)">
<stop offset="0.84375" stop-color="#F7F7F7" stop-opacity="0"/>
<stop offset="1" stop-color="#F7F7F7"/>
</radialGradient>
<clipPath id="clip0">
<rect x="261.395" y="-35" width="48.9294" height="261.815" transform="rotate(28.8661 261.395 -35)" fill="white"/>
</clipPath>
</defs>
</svg>
