<svg width="270" height="240" viewBox="0 0 270 240" fill="none" xmlns="http://www.w3.org/2000/svg">
<mask id="mask0" mask-type="alpha" maskUnits="userSpaceOnUse" x="0" y="0" width="270" height="240">
<rect width="270" height="240" fill="#C4C4C4"/>
</mask>
<g mask="url(#mask0)">
<g filter="url(#filter0_dd)">
<path d="M162.172 176.652C161.179 176.215 160.417 175.522 159.886 174.576C159.641 173.518 159.738 172.491 160.176 171.497L164.384 161.95C168.767 152.006 174.259 144.925 180.86 140.709C187.747 136.381 196.553 132.543 207.277 129.193C216.085 126.425 222.855 123.708 227.586 121.043C232.405 118.179 236.13 113.764 238.76 107.797C241.565 101.433 242.212 95.6609 240.701 90.4818C239.476 85.1913 236.382 81.4521 231.418 79.2643C225.66 76.7264 220.173 76.8019 214.957 79.4908C209.828 81.9809 205.774 86.607 202.793 93.3693L200.689 98.1426C199.725 100.33 198.051 100.899 195.669 99.849L161.481 82.9987C160.488 82.5611 159.726 81.869 159.195 80.9223C158.95 79.8642 159.047 78.8379 159.485 77.8435L160.8 74.8601C166.06 62.9268 173.287 53.5233 182.482 46.6498C191.765 39.5773 202.168 35.6116 213.691 34.7525C225.302 33.6945 237.163 35.8347 249.275 41.173C266.945 48.9617 278.675 60.5452 284.464 75.9235C290.341 91.1028 289.422 107.444 281.708 124.946C277.851 133.697 273.229 140.686 267.842 145.913C262.742 151.028 257.529 154.787 252.201 157.19C247.073 159.68 240.677 162.086 233.014 164.409C225.064 166.843 218.911 169.238 214.553 171.593C210.394 174.035 207.175 177.842 204.895 183.013L201.871 189.875C201.433 190.869 200.641 191.589 199.496 192.035C198.638 192.369 197.712 192.317 196.719 191.879L162.172 176.652ZM149.99 251.093C143.24 248.117 138.645 243.479 136.205 237.178C133.766 230.877 134.08 224.246 137.149 217.285C140.217 210.324 144.855 205.718 151.064 203.466C157.361 201.016 163.885 201.279 170.635 204.254C177.584 207.317 182.279 211.999 184.718 218.3C187.158 224.601 186.887 231.132 183.906 237.895C180.926 244.657 176.243 249.363 169.859 252.012C163.562 254.462 156.94 254.156 149.99 251.093Z" fill="#F7F7F7"/>
<path d="M159.399 174.688L159.415 174.758L159.45 174.82C160.034 175.861 160.878 176.628 161.97 177.11L196.518 192.337C197.609 192.818 198.673 192.891 199.678 192.501C200.928 192.014 201.83 191.208 202.329 190.076L205.353 183.215C207.596 178.126 210.749 174.409 214.799 172.028C219.114 169.698 225.228 167.316 233.159 164.888C240.835 162.561 247.255 160.147 252.413 157.643C257.804 155.21 263.063 151.414 268.193 146.269C273.636 140.987 278.29 133.941 282.165 125.148C289.923 107.548 290.863 91.0686 284.931 75.7447C279.086 60.22 267.246 48.5477 249.476 40.7155C237.299 35.3483 225.355 33.1884 213.65 34.2542C202.031 35.1211 191.538 39.1219 182.181 46.2507C172.909 53.1823 165.632 62.658 160.343 74.6584L159.028 77.6418C158.546 78.735 158.439 79.8716 158.708 81.035L158.724 81.1046L158.759 81.1669C159.342 82.2049 160.182 82.9703 161.27 83.4518L195.448 100.298L195.457 100.302L195.467 100.307C196.72 100.859 197.871 101.024 198.872 100.683C199.883 100.34 200.629 99.5192 201.147 98.3443L203.251 93.5709C206.198 86.8844 210.181 82.3652 215.175 79.9406L215.175 79.9408L215.186 79.9353C220.257 77.3211 225.585 77.2398 231.216 79.7218C236.036 81.846 239.024 85.4573 240.214 90.5945L240.217 90.6083L240.221 90.6218C241.691 95.6586 241.074 101.307 238.302 107.595C235.708 113.481 232.049 117.808 227.335 120.61C222.648 123.25 215.918 125.953 207.128 128.716C196.377 132.074 187.529 135.928 180.594 140.285L180.591 140.287C173.881 144.574 168.335 151.748 163.926 161.749L159.719 171.295C159.237 172.388 159.13 173.525 159.399 174.688ZM170.04 252.478L170.051 252.473C176.563 249.771 181.335 244.967 184.364 238.096C187.392 231.225 187.676 224.556 185.184 218.119C182.691 211.679 177.891 206.906 170.837 203.797C163.979 200.774 157.319 200.497 150.888 202.998C144.534 205.304 139.804 210.02 136.691 217.083C133.577 224.149 133.246 230.918 135.739 237.359C138.231 243.795 142.929 248.527 149.789 251.55C156.843 254.659 163.604 254.982 170.04 252.478Z" stroke="#6C87A3"/>
</g>
<rect x="-15" width="300" height="240" fill="url(#paint0_radial)"/>
</g>
<defs>
<filter id="filter0_dd" x="52.6816" y="-27.3184" width="290.986" height="342.821" filterUnits="userSpaceOnUse" color-interpolation-filters="sRGB">
<feFlood flood-opacity="0" result="BackgroundImageFix"/>
<feColorMatrix in="SourceAlpha" type="matrix" values="0 0 0 0 0 0 0 0 0 0 0 0 0 0 0 0 0 0 127 0"/>
<feOffset dx="10" dy="10"/>
<feGaussianBlur stdDeviation="12.5"/>
<feColorMatrix type="matrix" values="0 0 0 0 0 0 0 0 0 0 0 0 0 0 0 0 0 0 0.15 0"/>
<feBlend mode="normal" in2="BackgroundImageFix" result="effect1_dropShadow"/>
<feColorMatrix in="SourceAlpha" type="matrix" values="0 0 0 0 0 0 0 0 0 0 0 0 0 0 0 0 0 0 127 0"/>
<feOffset dx="-15" dy="-15"/>
<feGaussianBlur stdDeviation="12.5"/>
<feColorMatrix type="matrix" values="0 0 0 0 1 0 0 0 0 1 0 0 0 0 1 0 0 0 1 0"/>
<feBlend mode="normal" in2="effect1_dropShadow" result="effect2_dropShadow"/>
<feBlend mode="normal" in="SourceGraphic" in2="effect2_dropShadow" result="shape"/>
</filter>
<radialGradient id="paint0_radial" cx="0" cy="0" r="1" gradientUnits="userSpaceOnUse" gradientTransform="translate(135 120) rotate(90) scale(120 150)">
<stop offset="0.84375" stop-color="#F7F7F7" stop-opacity="0"/>
<stop offset="1" stop-color="#F7F7F7"/>
</radialGradient>
</defs>
</svg>
