<svg xmlns="http://www.w3.org/2000/svg" xmlns:xlink="http://www.w3.org/1999/xlink" viewBox="0 0 473.1 501.54"><defs><style>.cls-1{fill:none;}.cls-2{fill:#fff;}.cls-3{fill:#d9eeff;}.cls-4{fill:#91c4f8;}.cls-5{fill:#7aa3e5;}.cls-6{fill:#c3dffb;}.cls-7{fill:#6384ce;}.cls-8{fill:#335296;}.cls-9{fill:#2b2660;}.cls-10{clip-path:url(#clip-path);}.cls-11{fill:#62cae0;}</style><clipPath id="clip-path"><path id="SVGID" class="cls-1" d="M55.92,171.25c0,10.46,7.34,14.7,16.41,9.47s16.4-18,16.4-28.42-7.34-14.71-16.4-9.47-16.41,17.95-16.41,28.42"/></clipPath></defs><g id="Layer_2" data-name="Layer 2"><g id="Layer_1-2" data-name="Layer 1"><polygon class="cls-2" points="364.57 36.38 350.58 28.29 350.58 20.21 336.57 12.13 336.57 4.04 329.57 0 322.57 4.04 322.57 12.13 308.57 20.21 308.57 28.3 294.57 36.38 329.57 56.6 364.57 36.38"/><polygon class="cls-3" points="329.57 56.6 329.57 307.22 336.57 303.18 343.57 307.22 364.57 295.1 364.57 36.38 329.57 56.6"/><polygon class="cls-2" points="357.58 48.51 336.57 60.63 343.57 64.68 364.57 52.55 357.58 48.51"/><polygon class="cls-4" points="294.57 36.38 294.57 295.1 315.57 307.22 322.57 303.18 329.57 307.22 329.57 56.6 294.57 36.38"/><polygon class="cls-4" points="343.57 64.68 336.57 60.63 336.57 303.18 343.57 307.22 343.57 64.68"/><polygon class="cls-2" points="301.57 48.51 322.57 60.63 315.57 64.68 294.57 52.55 301.57 48.51"/><polygon class="cls-3" points="315.57 64.68 322.57 60.63 322.57 303.18 315.57 307.22 315.57 64.68"/><polygon class="cls-4" points="357.58 64.68 350.57 68.72 350.57 303.18 357.58 299.14 357.58 64.68"/><polygon class="cls-5" points="308.57 68.72 301.57 64.68 301.57 299.14 308.57 303.18 308.57 68.72"/><polygon class="cls-4" points="329.57 48.51 329.57 32.34 308.57 20.21 308.57 36.38 329.57 48.51"/><polygon class="cls-3" points="329.57 32.34 350.58 20.21 350.58 36.38 329.57 48.51 329.57 32.34"/><polygon class="cls-3" points="336.57 20.21 329.57 24.25 329.57 8.08 336.57 4.04 336.57 20.21"/><polygon class="cls-4" points="329.57 24.25 322.57 20.21 322.57 4.04 329.57 8.08 329.57 24.25"/><polygon class="cls-3" points="473.1 151.43 473.1 370.01 424.09 398.32 424.09 179.72 473.1 151.43"/><polygon class="cls-4" points="424.09 179.72 424.09 398.32 375.08 370.02 375.08 151.43 424.09 179.72"/><polygon class="cls-2" points="473.1 151.43 424.09 123.13 375.08 151.43 424.09 179.72 473.1 151.43"/><polygon class="cls-4" points="431.09 183.77 438.08 179.72 438.08 187.82 431.09 191.86 431.09 183.77"/><polygon class="cls-4" points="445.1 175.69 452.09 171.64 452.09 179.74 445.1 183.77 445.1 175.69"/><polygon class="cls-4" points="459.1 167.61 466.1 163.56 466.1 171.65 459.1 175.69 459.1 167.61"/><polygon class="cls-4" points="431.09 199.94 438.08 195.89 438.08 203.98 431.09 208.02 431.09 199.94"/><polygon class="cls-4" points="445.1 191.85 452.09 187.81 452.09 195.9 445.1 199.94 445.1 191.85"/><polygon class="cls-4" points="459.1 183.77 466.1 179.72 466.1 187.82 459.1 191.86 459.1 183.77"/><polygon class="cls-4" points="431.09 216.1 438.08 212.05 438.08 220.15 431.09 224.19 431.09 216.1"/><polygon class="cls-4" points="445.1 208.02 452.09 203.97 452.09 212.07 445.1 216.1 445.1 208.02"/><polygon class="cls-4" points="459.1 199.94 466.1 195.89 466.1 203.98 459.1 208.02 459.1 199.94"/><polygon class="cls-4" points="431.09 232.27 438.08 228.22 438.08 244.38 431.09 248.42 431.09 232.27"/><polygon class="cls-4" points="445.1 224.18 452.09 220.14 452.09 236.3 445.1 240.34 445.1 224.18"/><polygon class="cls-4" points="459.1 216.1 466.1 212.05 466.1 228.22 459.1 232.26 459.1 216.1"/><polygon class="cls-4" points="431.09 256.51 438.08 252.46 438.08 268.65 431.09 272.69 431.09 256.51"/><polygon class="cls-4" points="445.1 248.42 452.09 244.38 452.09 260.57 445.1 264.61 445.1 248.42"/><polygon class="cls-4" points="459.1 240.34 466.1 236.29 466.1 252.49 459.1 256.53 459.1 240.34"/><polygon class="cls-4" points="431.09 280.76 438.08 276.71 438.09 300.99 431.09 305.03 431.09 280.76"/><polygon class="cls-4" points="445.1 272.68 452.09 268.63 452.09 292.91 445.1 296.94 445.1 272.68"/><polygon class="cls-4" points="459.1 264.6 466.1 260.55 466.1 284.82 459.11 288.86 459.1 264.6"/><polygon class="cls-5" points="382.08 163.56 389.08 167.6 389.07 175.69 382.09 171.64 382.08 163.56"/><polygon class="cls-5" points="396.09 171.64 403.09 175.68 403.08 183.77 396.09 179.72 396.09 171.64"/><polygon class="cls-5" points="410.09 179.72 417.09 183.77 417.09 191.86 410.1 187.81 410.09 179.72"/><polygon class="cls-5" points="382.08 179.73 389.08 183.77 389.07 191.86 382.09 187.81 382.08 179.73"/><polygon class="cls-5" points="396.09 187.81 403.09 191.85 403.08 199.94 396.09 195.89 396.09 187.81"/><polygon class="cls-5" points="410.09 195.89 417.09 199.94 417.09 208.03 410.1 203.98 410.09 195.89"/><polygon class="cls-5" points="382.08 195.9 389.08 199.94 389.07 208.03 382.09 203.98 382.08 195.9"/><polygon class="cls-5" points="396.09 203.98 403.09 208.02 403.08 216.11 396.09 212.06 396.09 203.98"/><polygon class="cls-5" points="410.09 212.06 417.09 216.11 417.09 224.19 410.1 220.15 410.09 212.06"/><polygon class="cls-5" points="382.08 212.07 389.08 216.11 389.07 232.27 382.09 228.22 382.08 212.07"/><polygon class="cls-5" points="396.09 220.15 403.09 224.19 403.08 240.35 396.09 236.3 396.09 220.15"/><polygon class="cls-5" points="410.09 228.23 417.09 232.28 417.09 248.44 410.1 244.39 410.09 228.23"/><polygon class="cls-5" points="382.08 236.3 389.08 240.35 389.07 256.54 382.08 252.49 382.08 236.3"/><polygon class="cls-5" points="396.09 244.39 403.09 248.43 403.08 264.62 396.09 260.57 396.09 244.39"/><polygon class="cls-5" points="410.1 252.47 417.1 256.51 417.09 272.71 410.1 268.66 410.1 252.47"/><polygon class="cls-5" points="382.08 260.57 389.08 264.61 389.08 288.88 382.09 284.83 382.08 260.57"/><polygon class="cls-5" points="396.09 268.65 403.09 272.69 403.09 296.97 396.1 292.92 396.09 268.65"/><polygon class="cls-5" points="410.1 276.74 417.1 280.78 417.09 305.05 410.1 301 410.1 276.74"/><polygon class="cls-3" points="424.22 131.07 423.97 139.3 396.08 155.47 389.08 151.44 424.22 131.07"/><polygon class="cls-4" points="424.22 131.07 458.97 151.43 451.98 155.47 423.97 139.3 424.22 131.07"/><polygon class="cls-2" points="354.08 214.12 403.33 185.68 452.09 214.12 403.33 242.42 354.08 214.12"/><polygon class="cls-4" points="354.08 214.12 354.08 383.9 403.33 412.35 403.33 242.42 354.08 214.12"/><polygon class="cls-3" points="403.33 242.42 452.09 214.12 452.09 383.9 403.33 412.35 403.33 242.42"/><polygon class="cls-3" points="382.08 206.05 382.08 214.13 375.08 218.17 368.2 214.06 382.08 206.05"/><polygon class="cls-4" points="438.21 214.06 431.08 218.17 424.08 214.13 424.08 205.96 438.21 214.06"/><polygon class="cls-4" points="382.08 222.21 403.08 234.34 403.08 218.17 382.08 206.04 382.08 222.21"/><polygon class="cls-3" points="403.08 218.17 424.09 206.04 424.09 222.21 403.08 234.34 403.08 218.17"/><polygon class="cls-5" points="354.08 222.21 403.33 250.65 403.33 258.73 354.08 230.29 354.08 222.21"/><polygon class="cls-5" points="354.08 238.38 403.33 266.82 403.33 274.9 354.08 246.46 354.08 238.38"/><polygon class="cls-5" points="354.08 254.55 403.33 282.99 403.33 291.07 354.08 262.63 354.08 254.55"/><polygon class="cls-5" points="354.08 270.72 403.33 299.16 403.33 307.24 354.08 278.8 354.08 270.72"/><polygon class="cls-5" points="354.08 286.89 403.33 315.33 403.33 323.41 354.08 294.97 354.08 286.89"/><polygon class="cls-5" points="354.08 303.06 403.33 331.5 403.33 339.58 354.08 311.14 354.08 303.06"/><polygon class="cls-5" points="354.08 319.23 403.33 347.67 403.33 355.75 354.08 327.31 354.08 319.23"/><polygon class="cls-5" points="354.08 335.4 403.33 363.84 403.33 371.92 354.08 343.48 354.08 335.4"/><polygon class="cls-5" points="354.08 351.56 403.33 380.01 403.33 388.09 354.08 359.65 354.08 351.56"/><polygon class="cls-4" points="452.09 222.21 403.31 250.65 403.31 258.73 452.09 230.29 452.09 222.21"/><polygon class="cls-4" points="452.09 238.38 403.31 266.82 403.31 274.9 452.09 246.46 452.09 238.38"/><polygon class="cls-4" points="452.09 254.55 403.31 282.99 403.31 291.07 452.09 262.63 452.09 254.55"/><polygon class="cls-4" points="452.09 270.72 403.31 299.16 403.31 307.24 452.09 278.8 452.09 270.72"/><polygon class="cls-4" points="452.09 286.89 403.31 315.33 403.31 323.41 452.09 294.97 452.09 286.89"/><polygon class="cls-4" points="452.09 303.06 403.31 331.5 403.31 339.58 452.09 311.14 452.09 303.06"/><polygon class="cls-4" points="452.09 319.23 403.31 347.67 403.31 355.75 452.09 327.31 452.09 319.23"/><polygon class="cls-4" points="452.09 335.4 403.31 363.84 403.31 371.92 452.09 343.48 452.09 335.4"/><polygon class="cls-4" points="452.09 351.56 403.31 380.01 403.31 388.09 452.09 359.65 452.09 351.56"/><polygon class="cls-4" points="130.04 99.04 130.04 276.9 221.05 329.46 221.05 151.59 130.04 99.04"/><polygon class="cls-3" points="221.05 151.59 221.05 329.46 284.06 293.07 284.06 115.21 221.05 151.59"/><polygon class="cls-2" points="284.06 115.21 193.05 62.65 130.04 99.04 221.06 151.59 284.06 115.21"/><polygon class="cls-5" points="221.06 159.67 151.04 119.25 151.04 127.33 221.05 167.76 221.06 159.67"/><polygon class="cls-5" points="221.06 175.84 151.04 135.42 151.04 143.5 221.05 183.93 221.06 175.84"/><polygon class="cls-5" points="221.06 192.01 151.04 151.59 151.04 159.67 221.05 200.1 221.06 192.01"/><polygon class="cls-5" points="221.06 208.18 151.04 167.76 151.04 175.84 221.05 216.27 221.06 208.18"/><polygon class="cls-5" points="221.06 224.35 151.04 183.93 151.04 192.01 221.05 232.44 221.06 224.35"/><polygon class="cls-5" points="221.06 240.52 151.04 200.09 151.04 208.18 221.05 248.6 221.06 240.52"/><polygon class="cls-5" points="221.06 256.69 151.04 216.26 151.04 224.35 221.05 264.77 221.06 256.69"/><polygon class="cls-5" points="221.06 272.86 151.04 232.43 151.04 240.52 221.05 280.94 221.06 272.86"/><polygon class="cls-4" points="221.06 159.67 249.06 143.5 249.06 151.59 221.05 167.76 221.06 159.67"/><polygon class="cls-4" points="221.06 175.84 249.06 159.67 249.06 167.76 221.05 183.93 221.06 175.84"/><polygon class="cls-4" points="221.06 192.01 249.06 175.84 249.06 183.93 221.05 200.1 221.06 192.01"/><polygon class="cls-4" points="221.06 208.18 249.06 192.01 249.06 200.1 221.05 216.27 221.06 208.18"/><polygon class="cls-4" points="221.06 224.35 249.06 208.18 249.06 216.27 221.05 232.44 221.06 224.35"/><polygon class="cls-4" points="221.06 240.52 249.06 224.35 249.06 232.44 221.05 248.61 221.06 240.52"/><polygon class="cls-4" points="221.06 256.69 249.06 240.52 249.06 248.61 221.05 264.78 221.06 256.69"/><polygon class="cls-4" points="221.06 272.86 249.06 256.69 249.06 264.78 221.05 280.95 221.06 272.86"/><polygon class="cls-3" points="270.07 115.21 270.06 107.12 221.06 135.42 221.06 143.5 270.07 115.21"/><polygon class="cls-4" points="221.06 135.42 144.04 90.95 144.04 99.04 221.06 143.5 221.06 135.42"/><polygon class="cls-2" points="256.06 428.5 256.06 185.95 312.07 153.61 368.08 185.95 368.08 428.5 312.07 460.83 256.06 428.5"/><polygon class="cls-4" points="256.06 185.95 312.07 218.29 312.07 460.83 256.06 428.5 256.06 185.95"/><polygon class="cls-3" points="312.07 218.29 368.08 185.95 368.08 428.5 312.07 460.83 312.07 218.29"/><polygon class="cls-1" points="270.06 185.95 312.07 161.7 354.08 185.95 312.07 210.21 270.06 185.95"/><polygon class="cls-4" points="354.07 185.96 347.07 190 312.07 169.78 312.07 161.69 354.07 185.96"/><polygon class="cls-6" points="312.07 161.69 312.07 169.78 277.06 190 270.06 185.96 312.07 161.69"/><polygon class="cls-1" points="277.06 189.99 312.07 210.21 347.07 189.99 312.07 169.78 277.06 189.99"/><polygon class="cls-4" points="319.07 222.33 319.07 238.5 361.08 214.25 361.08 198.08 319.07 222.33"/><polygon class="cls-4" points="319.07 246.59 319.07 262.76 361.08 238.5 361.08 222.33 319.07 246.59"/><polygon class="cls-4" points="319.07 270.84 319.07 287.01 361.08 262.76 361.08 246.59 319.07 270.84"/><polygon class="cls-4" points="319.07 295.1 319.07 311.26 361.08 287.01 361.08 270.84 319.07 295.1"/><polygon class="cls-4" points="319.07 319.35 319.07 335.52 361.08 311.26 361.08 295.1 319.07 319.35"/><polygon class="cls-4" points="319.32 343.6 319.32 359.77 361.33 335.52 361.33 319.35 319.32 343.6"/><polygon class="cls-4" points="319.32 367.86 319.32 384.03 361.33 359.77 361.33 343.6 319.32 367.86"/><polygon class="cls-5" points="305.19 222.33 305.19 238.5 263.19 214.25 263.19 198.08 305.19 222.33"/><polygon class="cls-5" points="305.19 246.59 305.19 262.76 263.19 238.5 263.19 222.33 305.19 246.59"/><polygon class="cls-5" points="305.19 270.84 305.19 287.01 263.19 262.76 263.19 246.59 305.19 270.84"/><polygon class="cls-5" points="305.19 295.1 305.19 311.26 263.19 287.01 263.19 270.84 305.19 295.1"/><polygon class="cls-5" points="305.19 319.35 305.19 335.52 263.19 311.26 263.19 295.1 305.19 319.35"/><polygon class="cls-5" points="304.94 343.6 304.94 359.77 262.94 335.52 262.94 319.35 304.94 343.6"/><polygon class="cls-5" points="304.94 367.86 304.94 384.03 262.94 359.77 262.94 343.6 304.94 367.86"/><polygon class="cls-4" points="52.53 155.53 52.53 325.31 129.54 369.78 129.54 199.99 52.53 155.53"/><polygon class="cls-3" points="129.54 199.99 129.54 369.78 178.55 341.48 178.55 171.7 129.54 199.99"/><polygon class="cls-2" points="178.55 171.7 101.54 127.23 52.53 155.53 129.54 199.99 178.55 171.7"/><polygon class="cls-5" points="122.54 204.03 115.55 199.99 115.55 208.08 122.54 212.12 122.54 204.03"/><polygon class="cls-5" points="108.54 195.95 101.54 191.91 101.54 200 108.54 204.04 108.54 195.95"/><polygon class="cls-5" points="94.53 187.87 87.54 183.82 87.54 191.92 94.53 195.95 94.53 187.87"/><polygon class="cls-5" points="80.53 179.79 73.53 175.74 73.53 183.83 80.53 187.87 80.53 179.79"/><polygon class="cls-5" points="66.52 171.7 59.53 167.66 59.53 175.75 66.52 179.79 66.52 171.7"/><polygon class="cls-5" points="122.54 220.2 115.55 216.15 115.55 224.25 122.54 228.28 122.54 220.2"/><polygon class="cls-5" points="108.54 212.12 101.54 208.07 101.54 216.16 108.54 220.2 108.54 212.12"/><polygon class="cls-5" points="94.53 204.03 87.54 199.99 87.54 208.08 94.53 212.12 94.53 204.03"/><polygon class="cls-5" points="80.53 195.95 73.53 191.91 73.53 200 80.53 204.04 80.53 195.95"/><polygon class="cls-5" points="66.52 187.87 59.53 183.82 59.53 191.92 66.52 195.95 66.52 187.87"/><polygon class="cls-5" points="122.54 236.37 115.55 232.32 115.55 240.41 122.54 244.45 122.54 236.37"/><polygon class="cls-5" points="108.54 228.28 101.54 224.24 101.54 232.33 108.54 236.37 108.54 228.28"/><polygon class="cls-5" points="94.53 220.2 87.54 216.15 87.54 224.25 94.53 228.28 94.53 220.2"/><polygon class="cls-5" points="80.53 212.12 73.53 208.07 73.53 216.16 80.53 220.2 80.53 212.12"/><polygon class="cls-5" points="66.52 204.03 59.53 199.99 59.53 208.08 66.52 212.12 66.52 204.03"/><polygon class="cls-5" points="122.54 252.53 115.55 248.48 115.55 256.58 122.54 260.62 122.54 252.53"/><polygon class="cls-5" points="108.54 244.45 101.54 240.4 101.54 248.49 108.54 252.53 108.54 244.45"/><polygon class="cls-5" points="94.53 236.37 87.54 232.32 87.54 240.41 94.53 244.45 94.53 236.37"/><polygon class="cls-5" points="80.53 228.28 73.53 224.24 73.53 232.33 80.53 236.37 80.53 228.28"/><polygon class="cls-5" points="66.52 220.2 59.53 216.15 59.53 224.25 66.52 228.28 66.52 220.2"/><polygon class="cls-5" points="122.54 268.69 115.55 264.65 115.55 272.74 122.54 276.78 122.54 268.69"/><polygon class="cls-5" points="108.54 260.61 101.54 256.56 101.54 264.66 108.54 268.7 108.54 260.61"/><polygon class="cls-5" points="94.53 252.53 87.54 248.48 87.54 256.58 94.53 260.62 94.53 252.53"/><polygon class="cls-5" points="80.53 244.45 73.53 240.4 73.53 248.49 80.53 252.53 80.53 244.45"/><polygon class="cls-5" points="66.52 236.37 59.53 232.32 59.53 240.41 66.52 244.45 66.52 236.37"/><polygon class="cls-5" points="122.54 284.86 115.55 280.81 115.55 288.91 122.54 292.94 122.54 284.86"/><polygon class="cls-5" points="108.54 276.78 101.54 272.73 101.54 280.82 108.54 284.86 108.54 276.78"/><polygon class="cls-5" points="94.53 268.69 87.54 264.65 87.54 272.74 94.53 276.78 94.53 268.69"/><polygon class="cls-5" points="80.53 260.61 73.53 256.56 73.53 264.66 80.53 268.7 80.53 260.61"/><polygon class="cls-5" points="66.52 252.53 59.53 248.48 59.53 256.58 66.52 260.62 66.52 252.53"/><polygon class="cls-5" points="122.54 301.02 115.55 296.98 115.55 305.07 122.54 309.11 122.54 301.02"/><polygon class="cls-5" points="108.54 292.94 101.54 288.9 101.54 296.99 108.54 301.03 108.54 292.94"/><polygon class="cls-5" points="94.53 284.86 87.54 280.81 87.54 288.91 94.53 292.94 94.53 284.86"/><polygon class="cls-5" points="80.53 276.78 73.53 272.73 73.53 280.82 80.53 284.86 80.53 276.78"/><polygon class="cls-5" points="66.52 268.69 59.53 264.65 59.53 272.74 66.52 276.78 66.52 268.69"/><polygon class="cls-5" points="122.54 317.19 115.55 313.14 115.55 321.24 122.54 325.27 122.54 317.19"/><polygon class="cls-5" points="108.54 309.11 101.54 305.06 101.54 313.15 108.54 317.19 108.54 309.11"/><polygon class="cls-5" points="94.53 301.02 87.54 296.98 87.54 305.07 94.53 309.11 94.53 301.02"/><polygon class="cls-5" points="80.53 292.94 73.53 288.9 73.53 296.99 80.53 301.03 80.53 292.94"/><polygon class="cls-5" points="66.52 284.86 59.53 280.81 59.53 288.91 66.52 292.94 66.52 284.86"/><polygon class="cls-4" points="171.55 183.82 164.55 187.87 164.56 195.95 171.55 191.91 171.55 183.82"/><polygon class="cls-4" points="157.55 191.91 150.54 195.95 150.55 204.04 157.54 199.99 157.55 191.91"/><polygon class="cls-4" points="143.54 199.99 136.54 204.03 136.55 212.12 143.54 208.07 143.54 199.99"/><polygon class="cls-4" points="171.55 199.99 164.55 204.03 164.56 212.12 171.55 208.07 171.55 199.99"/><polygon class="cls-4" points="157.55 208.07 150.54 212.12 150.55 220.21 157.54 216.16 157.55 208.07"/><polygon class="cls-4" points="143.54 216.16 136.54 220.2 136.55 228.29 143.54 224.24 143.54 216.16"/><polygon class="cls-4" points="171.55 216.16 164.55 220.2 164.56 228.29 171.55 224.24 171.55 216.16"/><polygon class="cls-4" points="157.55 224.24 150.54 228.29 150.55 236.38 157.54 232.33 157.55 224.24"/><polygon class="cls-4" points="143.54 232.33 136.54 236.37 136.55 244.46 143.54 240.41 143.54 232.33"/><polygon class="cls-4" points="171.55 232.33 164.55 236.37 164.56 244.46 171.55 240.41 171.55 232.33"/><polygon class="cls-4" points="157.55 240.41 150.54 244.46 150.55 252.55 157.54 248.5 157.55 240.41"/><polygon class="cls-4" points="143.54 248.5 136.54 252.54 136.55 260.63 143.54 256.58 143.54 248.5"/><polygon class="cls-4" points="171.56 248.48 164.55 252.53 164.56 260.62 171.55 256.57 171.56 248.48"/><polygon class="cls-4" points="157.55 256.57 150.54 260.61 150.55 268.7 157.54 264.65 157.55 256.57"/><polygon class="cls-4" points="143.54 264.65 136.53 268.69 136.54 276.79 143.53 272.74 143.54 264.65"/><polygon class="cls-4" points="171.56 264.66 164.55 268.7 164.56 276.79 171.55 272.74 171.56 264.66"/><polygon class="cls-4" points="157.55 272.74 150.54 276.78 150.55 284.88 157.54 280.82 157.55 272.74"/><polygon class="cls-4" points="143.54 280.82 136.53 284.87 136.54 292.96 143.53 288.91 143.54 280.82"/><polygon class="cls-4" points="171.56 280.83 164.55 284.87 164.56 292.96 171.55 288.91 171.56 280.83"/><polygon class="cls-4" points="157.55 288.91 150.54 292.96 150.55 301.05 157.54 297 157.55 288.91"/><polygon class="cls-4" points="143.54 297 136.53 301.04 136.54 309.13 143.53 305.08 143.54 297"/><polygon class="cls-4" points="171.56 297 164.55 301.05 164.56 309.14 171.55 305.09 171.56 297"/><polygon class="cls-4" points="157.55 305.09 150.54 309.13 150.55 317.22 157.54 313.17 157.55 305.09"/><polygon class="cls-4" points="143.54 313.17 136.53 317.21 136.54 325.31 143.53 321.26 143.54 313.17"/><polygon class="cls-4" points="101.29 135.17 101.54 143.4 157.55 175.74 164.55 171.7 101.29 135.17"/><polygon class="cls-3" points="101.29 135.17 66.54 155.53 73.53 159.57 101.54 143.4 101.29 135.17"/><polygon class="cls-4" points="0.05 175.84 0 369.85 35.05 390.09 35.05 196.06 0.05 175.84"/><polygon class="cls-3" points="35.05 196.06 70.06 175.84 70.06 369.88 35.05 390.09 35.05 196.06"/><polygon class="cls-2" points="0.05 175.84 35.05 155.63 70.06 175.84 35.05 196.06 0.05 175.84"/><polygon class="cls-5" points="14.05 192.01 35.05 204.14 35.05 212.23 14.05 200.1 14.05 192.01"/><polygon class="cls-5" points="14.05 208.18 35.05 220.31 35.05 228.4 14.05 216.27 14.05 208.18"/><polygon class="cls-5" points="14.05 224.35 35.05 236.48 35.05 244.56 14.05 232.44 14.05 224.35"/><polygon class="cls-5" points="14.05 240.52 35.05 252.65 35.05 260.74 14.05 248.61 14.05 240.52"/><polygon class="cls-5" points="14.05 256.69 35.05 268.82 35.05 276.9 14.05 264.78 14.05 256.69"/><polygon class="cls-5" points="14.05 272.86 35.05 284.99 35.05 293.07 14.05 280.95 14.05 272.86"/><polygon class="cls-5" points="14.05 289.03 35.05 301.16 35.05 309.24 14.05 297.12 14.05 289.03"/><polygon class="cls-5" points="14.05 305.2 35.05 317.33 35.05 325.41 14.05 313.29 14.05 305.2"/><polygon class="cls-5" points="14.05 321.37 35.05 333.5 35.05 341.58 14.05 329.46 14.05 321.37"/><polygon class="cls-5" points="14.05 337.54 35.05 349.67 35.05 357.75 14.05 345.63 14.05 337.54"/><polygon class="cls-5" points="14.05 353.71 35.05 365.84 35.05 373.92 14.05 361.8 14.05 353.71"/><polygon class="cls-4" points="56.05 192.01 35.05 204.14 35.05 212.23 56.05 200.1 56.05 192.01"/><polygon class="cls-4" points="56.05 208.18 35.05 220.31 35.05 228.4 56.05 216.27 56.05 208.18"/><polygon class="cls-4" points="56.05 224.35 35.05 236.48 35.05 244.56 56.05 232.44 56.05 224.35"/><polygon class="cls-4" points="56.05 240.52 35.05 252.65 35.05 260.74 56.05 248.61 56.05 240.52"/><polygon class="cls-4" points="56.05 256.69 35.05 268.82 35.05 276.9 56.05 264.78 56.05 256.69"/><polygon class="cls-4" points="56.05 272.86 35.05 284.99 35.05 293.07 56.05 280.95 56.05 272.86"/><polygon class="cls-4" points="56.05 289.03 35.05 301.16 35.05 309.24 56.05 297.12 56.05 289.03"/><polygon class="cls-4" points="56.05 305.2 35.05 317.33 35.05 325.41 56.05 313.29 56.05 305.2"/><polygon class="cls-4" points="56.05 321.37 35.05 333.5 35.05 341.58 56.05 329.46 56.05 321.37"/><polygon class="cls-4" points="56.05 337.54 35.05 349.67 35.05 357.75 56.05 345.63 56.05 337.54"/><polygon class="cls-4" points="56.05 353.71 35.05 365.84 35.05 373.92 56.05 361.8 56.05 353.71"/><polygon class="cls-3" points="14.05 175.84 21.05 179.89 35.05 171.8 35.05 163.72 14.05 175.84"/><polygon class="cls-4" points="35.05 171.8 49.05 179.89 56.05 175.84 35.05 163.72 35.05 171.8"/><path class="cls-2" d="M135.26,216.27l38.28-22.1a1.55,1.55,0,0,1,1.67-.09h0l13.23,7.66L176,209.16v21a5.91,5.91,0,0,1-2.47,4.72L147.4,250l-.53,14.79-13.13-7.6-.18-.1,0,0h0a2.29,2.29,0,0,1-.75-1.93V221a5.93,5.93,0,0,1,2.47-4.72"/><path class="cls-5" d="M157.57,244.1,147.4,250l-.53,14.79-13.13-7.6-.18-.1,0,0h0a2.29,2.29,0,0,1-.75-1.93V221a6.1,6.1,0,0,1,.54-2.37l24.24,14V244.1Z"/><path class="cls-5" d="M148.56,264.68l38.27-22.1a5.9,5.9,0,0,0,2.47-4.72V203.73c0-1.82-1.1-2.65-2.47-1.86L148.56,224a5.9,5.9,0,0,0-2.47,4.72v34.13c0,1.82,1.1,2.65,2.47,1.87"/><path class="cls-2" d="M148,223.66l38.27-22.1a1.49,1.49,0,0,1,1.85.06,1.75,1.75,0,0,0-1.32.25L148.56,224a5.92,5.92,0,0,0-2.47,4.72v34.13a2.45,2.45,0,0,0,.62,1.81c-.69-.19-1.15-.94-1.15-2.12V228.38a5.9,5.9,0,0,1,2.47-4.72Z"/><path class="cls-7" d="M146.79,222.94l38.28-22.1a1.47,1.47,0,0,1,1.85,0,1.59,1.59,0,0,0-1.52.18l-38.27,22.09a5.9,5.9,0,0,0-2.47,4.72V262a2.43,2.43,0,0,0,.62,1.82,2.11,2.11,0,0,1-1-2.05V227.66a5.91,5.91,0,0,1,2.47-4.72Z"/><path class="cls-7" d="M149.67,262.84,185.72,242a5.57,5.57,0,0,0,2.32-4.44V205.46c0-1.72-1-2.51-2.32-1.76l-36.05,20.81a5.57,5.57,0,0,0-2.32,4.44v32.14c0,1.71,1,2.5,2.32,1.75"/><path class="cls-2" d="M183.05,210.73c0,.49.35.69.78.45a1.74,1.74,0,0,0,.77-1.34c0-.5-.35-.7-.77-.45a1.72,1.72,0,0,0-.78,1.34Z"/><path class="cls-8" d="M173.25,237.68a.71.71,0,0,0,.35-.11l9.34-5.39a2.12,2.12,0,0,0,.89-1.7V220c0-.49-.23-.78-.54-.78a.69.69,0,0,0-.35.1l-9.34,5.39a2.14,2.14,0,0,0-.89,1.7V236.9c0,.49.22.78.54.78"/><path class="cls-2" d="M180.82,230.44a.69.69,0,0,0,.24-.63v-1.57l0-.12,0-.09-.07,0-.11,0-.1.07-.07.1,0,.11,0,.12v1.67c0,.32.08.43.25.34Zm-.55.54a.72.72,0,0,1-.2-.59v-1.45a1.79,1.79,0,0,1,.19-.81,1.44,1.44,0,0,1,.56-.59c.24-.14.43-.16.55-.06a.74.74,0,0,1,.19.61v1.44a1.79,1.79,0,0,1-.19.81,1.34,1.34,0,0,1-.55.58c-.24.14-.43.16-.55.06Z"/><path class="cls-2" d="M179.16,231.84v-2.66l.46-.12v-.42a.83.83,0,0,1-.58,0l-.37.22v3.29l.49-.28Z"/><path class="cls-2" d="M177.94,232.21l-.47.27v-.54l.47-.26v.53Zm0-1.35-.47.27v-.53l.47-.27v.53Z"/><path class="cls-2" d="M176.45,233.45a1.46,1.46,0,0,0,.56-.57,1.74,1.74,0,0,0,.18-.8V232l-.48.29v.09a1.79,1.79,0,0,1-.06.4.49.49,0,0,1-.21.24l-.11,0-.07,0,0-.08,0-.13v-.18a1.16,1.16,0,0,1,.07-.44.68.68,0,0,1,.26-.3l0,0,0,0v-.47l-.07,0c-.13.07-.21.08-.26,0s-.08-.15-.08-.31a.9.9,0,0,1,.06-.36.45.45,0,0,1,.2-.23l.11,0,.07,0,.05.08,0,.12V231l.48-.29v-.15c0-.28-.06-.46-.19-.54s-.31,0-.55.08a1.5,1.5,0,0,0-.75,1.31.62.62,0,0,0,.11.4.25.25,0,0,0,.28.09,1.25,1.25,0,0,0-.29.44,1.72,1.72,0,0,0-.1.58.85.85,0,0,0,.18.63q.18.17.57-.06Z"/><polygon class="cls-2" points="175.27 234.08 174.71 231.54 175.46 231.11 175.46 230.67 174.23 231.39 174.23 231.72 174.79 234.36 175.27 234.08 175.27 234.08"/><path class="cls-2" d="M150.79,226.32l17.64-10.17a.9.9,0,0,1,1-.05h0l4.35,2.51L166.45,223v12.36a3.49,3.49,0,0,1-1.45,2.78l-10.5,6-.32,8.7-4.29-2.48-.1-.06h0a1.34,1.34,0,0,1-.44-1.13V229.09a3.47,3.47,0,0,1,1.45-2.77Z"/><path class="cls-5" d="M165,238.11l-10.5,6-.32,8.7-4.29-2.48-.1-.06h0a1.34,1.34,0,0,1-.44-1.13V229.09a3.68,3.68,0,0,1,.31-1.39l16.29,9.41a2.94,2.94,0,0,1-.94,1Z"/><path class="cls-5" d="M155.18,252.8l17.64-10.17a3.47,3.47,0,0,0,1.45-2.77V219.78c0-1.07-.65-1.56-1.45-1.1l-17.64,10.17a3.48,3.48,0,0,0-1.46,2.77V251.7c0,1.07.66,1.56,1.46,1.1Z"/><path class="cls-2" d="M154.57,228.54l17.64-10.16a.86.86,0,0,1,1.18.13,1.2,1.2,0,0,0-.57.17l-17.64,10.17a3.48,3.48,0,0,0-1.46,2.77V251.7a1.58,1.58,0,0,0,.28,1c-.52,0-.88-.47-.88-1.27V231.32a3.5,3.5,0,0,1,1.45-2.78Z"/><path class="cls-7" d="M156.05,251.11,171.94,242a3.15,3.15,0,0,0,1.31-2.5V221.37c0-1-.59-1.41-1.31-1l-15.89,9.15a3.15,3.15,0,0,0-1.31,2.5v18.09c0,1,.59,1.4,1.31,1Z"/><path class="cls-8" d="M158.61,238.85c0,3.44,2.41,4.83,5.39,3.11a11.91,11.91,0,0,0,5.38-9.33c0-3.43-2.41-4.83-5.38-3.11a11.91,11.91,0,0,0-5.39,9.33Z"/><path class="cls-7" d="M160,237c0,1.9,1.33,2.66,3,1.72a6.57,6.57,0,0,0,3-5.15c0-1.89-1.33-2.66-3-1.71a6.57,6.57,0,0,0-3,5.14Z"/><path class="cls-2" d="M161.59,236.05c0,.85.6,1.19,1.34.77a3,3,0,0,0,1.33-2.31c0-.85-.6-1.2-1.33-.77a2.94,2.94,0,0,0-1.34,2.31Z"/><polygon class="cls-7" points="132.79 234.72 144.54 241.5 144.58 241.92 132.79 235.12 132.79 234.72 132.79 234.72"/><polygon class="cls-7" points="132.79 224.45 144.54 231.24 144.58 231.66 132.79 224.86 132.79 224.45 132.79 224.45"/><polygon class="cls-7" points="168.63 197.01 180.24 203.71 180.13 204.05 168.28 197.21 168.63 197.01 168.63 197.01"/><path class="cls-9" d="M136.15,251.8l-1.41-.81v3.91l1.41.81V251.8Zm.21,4.28L134.53,255v-4.4l1.83,1.06v4.4Z"/><path class="cls-9" d="M142.25,255,138,252.57v3.91l4.27,2.43V255Zm.22,4.28-4.65-2.64,0,0v-4.4l4.64,2.63.06,0v4.41Z"/><polygon class="cls-2" points="60.53 282.86 95.54 262.65 130.54 282.86 95.54 303.07 60.53 282.86"/><polygon class="cls-2" points="95.54 343.49 130.54 323.28 165.55 343.49 130.54 363.71 95.54 343.49"/><polygon class="cls-2" points="130.54 404.13 165.55 383.92 200.55 404.13 165.55 424.34 130.54 404.13"/><polygon class="cls-3" points="95.54 303.07 95.54 343.49 130.54 323.28 130.54 282.86 95.54 303.07"/><polygon class="cls-3" points="130.54 363.71 130.54 404.13 165.55 383.92 165.55 343.49 130.54 363.71"/><polygon class="cls-3" points="165.55 424.34 165.55 464.77 200.55 444.56 200.55 404.13 165.55 424.34"/><polygon class="cls-4" points="60.53 282.86 60.53 404.13 165.55 464.77 165.55 424.34 130.54 404.13 130.54 363.71 95.54 343.49 95.54 303.07 60.53 282.86"/><polygon class="cls-5" points="95.54 311.16 95.54 319.24 67.53 303.07 67.53 294.99 95.54 311.16"/><polygon class="cls-5" points="95.54 327.33 95.54 335.41 67.53 319.24 67.53 311.16 95.54 327.33"/><polygon class="cls-5" points="67.53 335.41 123.54 367.75 123.54 375.83 67.53 343.49 67.53 335.41"/><polygon class="cls-5" points="123.54 383.92 123.54 392 67.53 359.66 67.53 351.58 123.54 383.92"/><polygon class="cls-5" points="158.55 428.38 60.53 371.79 60.53 379.88 158.55 436.47 158.55 428.38"/><polygon class="cls-5" points="158.55 444.56 158.55 452.64 60.53 396.05 60.53 387.96 158.55 444.56"/><polygon class="cls-4" points="123.54 294.99 123.54 303.07 95.54 319.24 95.54 311.16 123.54 294.99"/><polygon class="cls-4" points="123.54 311.16 123.54 319.24 95.54 335.41 95.54 327.33 123.54 311.16"/><polygon class="cls-4" points="137.54 367.75 137.54 375.83 165.55 359.66 165.55 351.58 137.54 367.75"/><polygon class="cls-4" points="137.54 383.92 137.54 392 165.55 375.83 165.55 367.75 137.54 383.92"/><polygon class="cls-4" points="186.55 420.3 186.55 428.38 200.55 420.3 200.55 412.21 186.55 420.3"/><polygon class="cls-4" points="186.55 436.47 186.55 444.56 200.55 436.47 200.55 428.38 186.55 436.47"/><polygon class="cls-4" points="179.55 424.34 172.55 428.38 172.55 436.47 179.55 432.43 179.55 424.34"/><polygon class="cls-4" points="172.55 444.56 172.55 452.64 179.55 448.6 179.55 440.51 172.55 444.56"/><path class="cls-2" d="M301.63,237.67,264,216.05a3,3,0,0,0-3.21-.19h0l-4.71,2.74,3.16.58c0,.16,0,.32,0,.5l.19,88.62c0,3.52,2.16,7.6,4.8,9.12l37.1,21.32c-.34,1.05-1.05,3.28-1.05,3.28l4.6-2.68h0c1.07-.56,1.75-1.94,1.75-3.92l-.2-88.63c0-3.52-2.16-7.6-4.8-9.12Z"/><path class="cls-6" d="M259.43,308.3c0,3.52,2.16,7.6,4.8,9.12l37.1,21.32c-.34,1.05-1.05,3.28-1.05,3.28l4.6-2.68h0c1.07-.56,1.75-1.94,1.75-3.92l-.2-88.63a11.77,11.77,0,0,0-1.53-5.52L259.34,267.7l.09,40.6Z"/><path class="cls-4" d="M297.12,341.79,259.5,320.18c-2.65-1.52-4.79-5.6-4.8-9.12l-.2-88.63c0-3.52,2.13-5.14,4.77-3.62l37.63,21.61c2.64,1.52,4.79,5.61,4.8,9.12l.19,88.63c0,3.52-2.12,5.14-4.77,3.62Z"/><path class="cls-5" d="M297.39,240.11l-37.63-21.62a2.92,2.92,0,0,0-3.45,0,3.12,3.12,0,0,1,3,.33l37.63,21.61c2.64,1.52,4.79,5.61,4.8,9.12l.19,88.63a4.55,4.55,0,0,1-1.31,3.63c1.1-.53,1.81-1.92,1.8-3.94l-.2-88.63c0-3.52-2.15-7.6-4.79-9.12Z"/><path class="cls-7" d="M296.42,338.86l-36.16-20.77c-2-1.13-3.56-4.16-3.56-6.78l-.2-87.37c0-2.61,1.58-3.82,3.55-2.69L296.2,242c2,1.13,3.56,4.16,3.57,6.78l.19,87.37c0,2.62-1.58,3.82-3.54,2.69Z"/><polygon class="cls-2" points="291.36 255.32 265.89 240.64 265.89 242.52 291.36 257.2 291.36 255.32 291.36 255.32"/><polygon class="cls-2" points="278.78 242.13 265.88 234.7 265.88 236.58 278.78 244.01 278.78 242.13 278.78 242.13"/><polygon class="cls-2" points="285.04 245.74 280.85 243.33 280.86 245.21 285.04 247.62 285.04 245.74 285.04 245.74"/><polygon class="cls-2" points="291.35 249.38 287.17 246.97 287.17 248.85 291.36 251.26 291.35 249.38 291.35 249.38"/><polygon class="cls-2" points="276.35 243.71 265.88 237.67 265.88 239.55 276.35 245.58 276.35 243.71 276.35 243.71"/><polygon class="cls-2" points="289.13 251.07 278.66 245.04 278.66 246.91 289.13 252.95 289.13 251.07 289.13 251.07"/><path class="cls-2" d="M274.07,250.83a2.07,2.07,0,0,0-.95-1.64c-.52-.3-.94-.06-.94.55a2.08,2.08,0,0,0,.95,1.64c.52.3.94.05.94-.55Z"/><path class="cls-2" d="M276.91,252.46a2.11,2.11,0,0,0-1-1.64c-.53-.3-.95-.06-.95.55A2.11,2.11,0,0,0,276,253c.52.3,1,.06,1-.55Z"/><path class="cls-2" d="M279.74,254.1a2.1,2.1,0,0,0-.95-1.65c-.52-.3-1,0-1,.55a2.09,2.09,0,0,0,1,1.64c.53.31.95.06.95-.54Z"/><path class="cls-2" d="M282.58,255.73a2.09,2.09,0,0,0-.95-1.64c-.53-.3-.95-.06-.95.55a2.08,2.08,0,0,0,.95,1.64c.52.3.95.05.95-.55Z"/><path class="cls-2" d="M285.41,257.36a2.11,2.11,0,0,0-1-1.64c-.52-.3-.95-.06-.95.55a2.11,2.11,0,0,0,.95,1.64c.53.3,1,.06,1-.55Z"/><path class="cls-2" d="M276.22,281.84,271.28,279a1.9,1.9,0,0,1-.8-1.5l0-5.4c0-.58.35-.85.79-.6l4.94,2.81a1.89,1.89,0,0,1,.79,1.5l0,5.4c0,.58-.35.85-.78.6Z"/><path class="cls-3" d="M284.83,286.75l-4.94-2.82a1.88,1.88,0,0,1-.8-1.5l0-5.4c0-.58.35-.85.79-.6l4.94,2.82a1.88,1.88,0,0,1,.79,1.5l0,5.4c0,.58-.35.85-.78.6Z"/><path class="cls-2" d="M276.27,291.43l-4.93-2.81a1.87,1.87,0,0,1-.8-1.5l0-5.4c0-.58.35-.85.78-.6l4.94,2.81a1.9,1.9,0,0,1,.8,1.5l0,5.4c0,.58-.35.85-.79.6Z"/><path class="cls-3" d="M284.88,296.34,280,293.53a1.88,1.88,0,0,1-.8-1.51l0-5.39c0-.59.35-.85.78-.61l4.94,2.82a1.9,1.9,0,0,1,.8,1.5l0,5.4c0,.58-.35.85-.79.6Z"/><polygon class="cls-2" points="278.8 303.32 229.55 274.88 180.79 303.32 229.55 331.61 278.8 303.32"/><polygon class="cls-3" points="278.8 303.32 278.8 473.1 229.55 501.54 229.55 331.61 278.8 303.32"/><polygon class="cls-4" points="229.55 331.61 180.79 303.32 180.79 473.1 229.55 501.54 229.55 331.61"/><polygon class="cls-4" points="250.8 295.24 250.8 303.32 257.8 307.36 264.68 303.25 250.8 295.24"/><polygon class="cls-3" points="194.67 303.25 201.8 307.36 208.8 303.32 208.8 295.15 194.67 303.25"/><polygon class="cls-3" points="250.8 311.4 229.8 323.53 229.8 307.36 250.8 295.23 250.8 311.4"/><polygon class="cls-4" points="229.8 307.36 208.79 295.23 208.79 311.4 229.8 323.53 229.8 307.36"/><polygon class="cls-4" points="278.8 311.4 229.55 339.84 229.55 347.93 278.8 319.49 278.8 311.4"/><polygon class="cls-4" points="278.8 327.57 229.55 356.01 229.55 364.1 278.8 335.66 278.8 327.57"/><polygon class="cls-4" points="278.8 343.74 229.55 372.18 229.55 380.27 278.8 351.83 278.8 343.74"/><polygon class="cls-4" points="278.8 359.91 229.55 388.35 229.55 396.44 278.8 368 278.8 359.91"/><polygon class="cls-4" points="278.8 376.08 229.55 404.52 229.55 412.61 278.8 384.17 278.8 376.08"/><polygon class="cls-4" points="278.8 392.25 229.55 420.69 229.55 428.78 278.8 400.33 278.8 392.25"/><polygon class="cls-4" points="278.8 408.42 229.55 436.86 229.55 444.94 278.8 416.5 278.8 408.42"/><polygon class="cls-4" points="278.8 424.59 229.55 453.03 229.55 461.12 278.8 432.67 278.8 424.59"/><polygon class="cls-4" points="278.8 440.76 229.55 469.2 229.55 477.29 278.8 448.84 278.8 440.76"/><polygon class="cls-5" points="180.79 311.4 229.57 339.84 229.57 347.93 180.79 319.49 180.79 311.4"/><polygon class="cls-5" points="180.79 327.57 229.57 356.01 229.57 364.1 180.79 335.66 180.79 327.57"/><polygon class="cls-5" points="180.79 343.74 229.57 372.18 229.57 380.27 180.79 351.83 180.79 343.74"/><polygon class="cls-5" points="180.79 359.91 229.57 388.35 229.57 396.44 180.79 368 180.79 359.91"/><polygon class="cls-5" points="180.79 376.08 229.57 404.52 229.57 412.61 180.79 384.17 180.79 376.08"/><polygon class="cls-5" points="180.79 392.25 229.57 420.69 229.57 428.78 180.79 400.33 180.79 392.25"/><polygon class="cls-5" points="180.79 408.42 229.57 436.86 229.57 444.94 180.79 416.5 180.79 408.42"/><polygon class="cls-5" points="180.79 424.59 229.57 453.03 229.57 461.12 180.79 432.67 180.79 424.59"/><polygon class="cls-5" points="180.79 440.76 229.57 469.2 229.57 477.29 180.79 448.84 180.79 440.76"/><path class="cls-7" d="M33.61,173.42v-3.1l-3.67-18.48,3.63-2.24,7.25,4,.06,23.81c0,1.61-.6,2.69-1.52,3h0l-3.23,2L35.71,181l-.55-2.79a8.89,8.89,0,0,1-1.55-4.75Z"/><path class="cls-6" d="M33.62,182.42h0c2,1.11,3.63-.13,3.62-2.76l-.05-23.82-7.26-4L30,175.66c0,2.63,1.63,5.66,3.63,6.76Z"/><path class="cls-6" d="M14,139c0,6.05,4.25,8.5,9.48,5.47S33,134.11,33,128.07s-4.24-8.5-9.48-5.48S14,133,14,139Z"/><polygon class="cls-6" points="16.72 145.09 44.31 160.91 59.14 138.63 30.4 122.04 16.72 145.09 16.72 145.09"/><path class="cls-2" d="M27.57,147.08c0-6.21,4.36-13.77,9.75-16.88,2.45-1.42,4.68-1.66,6.39-.93h0l0,0,0,0,.23.11a68.34,68.34,0,0,0,32.78,7l3.22-.13L53.86,181.06l-1.41-2.74a68.43,68.43,0,0,0-22-24.9c-1.79-1-2.9-3.2-2.9-6.34Z"/><path class="cls-2" d="M50.81,170.93c0-11.93,8.38-26.43,18.71-32.4,5.15-3,9.81-3.26,13.19-1.32h.05l3.07,1.8-1.08-.22c2.19,2.27,3.47,5.85,3.47,10.52,0,11.93-8.37,26.43-18.7,32.4-4.06,2.34-7.81,3-10.87,2.25l.48.72-2.82-1.65-.05,0-.1-.06h0c-3.31-2-5.36-6.14-5.36-12Z"/><path class="cls-2" d="M53,172.21c0-11.93,8.38-26.43,18.7-32.4,5.09-2.93,9.7-3.25,13.07-1.4l.47.28.47.32-1-.2c2.19,2.27,3.47,5.85,3.47,10.52,0,11.93-8.37,26.43-18.7,32.4-4.06,2.34-7.81,3-10.87,2.25l.44.66c-3.74-1.79-6.09-6.12-6.09-12.43Z"/><path class="cls-6" d="M53.62,172.57c0,11.93,8.38,16.76,18.71,10.8S91,162.9,91,151s-8.38-16.76-18.7-10.79-18.71,20.46-18.71,32.39Z"/><path class="cls-7" d="M55.92,171.25c0,10.46,7.34,14.7,16.41,9.47s16.4-18,16.4-28.42-7.34-14.71-16.4-9.47-16.41,17.95-16.41,28.42Z"/><path class="cls-2" d="M71.56,180.39C80.62,175.16,88,162.43,88,152c0-5.49-2-9.27-5.26-10.86,3.68,1.35,6,5.27,6,11.19,0,10.46-7.34,23.19-16.4,28.42-4.31,2.49-8.22,2.83-11.15,1.39,2.83,1,6.44.56,10.38-1.72Z"/><g class="cls-10"><polygon class="cls-2" points="74.78 157.85 50.97 139.44 42.33 154.44 70.27 165.91 74.78 157.85 74.78 157.85"/><path class="cls-6" d="M69.05,163.66c0,2.09,1.47,2.94,3.28,1.9a7.25,7.25,0,0,0,3.27-5.68c0-2.09-1.46-2.94-3.27-1.89a7.24,7.24,0,0,0-3.28,5.67Z"/></g><path class="cls-2" d="M39,173.62l.13-.07a2,2,0,0,0,.87-1.64v-4.6c0-.63-.38-.92-.86-.65l-.13.07a2.08,2.08,0,0,0-.86,1.64l0,4.6c0,.63.39.92.86.65Z"/><path class="cls-7" d="M452.32,109.18c-4.42-2.6-9.07-4.49-13.1-7.39v-.28a2.3,2.3,0,0,0-.45-.05l-.44-.33v.32a2.08,2.08,0,0,1-1.12-.25v10c0,14.55-8.85,31.49-19.72,37.77l-3,1.74c-3.39,2-6.66,2.66-9.5,2.09v2a12.64,12.64,0,0,0,2,.16,14,14,0,0,0,2.54-.24l.48,1.42s4.74,4.83,5.12,4.64,4.93,1.3,5.17,1.2,5-.72,5.65-.86a45.67,45.67,0,0,0,4.17-2.25l5.23-3.64,5-3.74,6.08-8.8,4.69-11.83,1.39-6.29s-.12-13.43-.14-15.47Z"/><path class="cls-2" d="M405.49,153.44c2.84.57,6.12-.14,9.51-2.09l3-1.75c10.88-6.27,19.72-23.22,19.72-37.77v-10a2.11,2.11,0,0,0,1.13.24v-.32l.44.33a2.6,2.6,0,0,1,.39,0l-.47-.32v-.28a2.3,2.3,0,0,0-.45-.05l-.44-.33v.32a2.08,2.08,0,0,1-1.12-.25v10c0,14.55-8.85,31.49-19.72,37.77l-3,1.74c-3.39,2-6.66,2.66-9.5,2.09v2c.17,0,.35,0,.52.06v-1.5Z"/><path class="cls-2" d="M450.56,124.42l-.14-.08c-1.76,13.16-9.77,27-19.35,32.51l-3,1.74c-4.46,2.57-8.73,3-12.05,1.16l.39.24c3.35,1.93,7.69,1.56,12.23-1.07l3-1.74c9.58-5.53,17.58-19.34,19.35-32.5l.14.08a2.63,2.63,0,0,0,1.2.31c0-.11,0-.23.05-.35a3.11,3.11,0,0,1-1.83-.3Z"/><path class="cls-5" d="M455.22,123.56V109.5l-4.36-1.84-15.93-6.75v14h0a1,1,0,0,0,.57.81l15.64,9a3.67,3.67,0,0,0,3.28-.14,1.37,1.37,0,0,0,.8-1.06Z"/><polygon class="cls-9" points="454.93 109.21 450.29 107.37 434.65 100.63 454.93 109.21 454.93 109.21"/><path class="cls-7" d="M452.39,108.31v16.77a3.8,3.8,0,0,0,2-.46,1.37,1.37,0,0,0,.8-1.06h0V109.5l-2.83-1.19Z"/><path class="cls-2" d="M451.14,110.76l-15.64-9c-.84-.49-.73-1.34.24-1.89A3.6,3.6,0,0,1,439,99.7l15.63,9c.84.48.74,1.33-.23,1.89a3.67,3.67,0,0,1-3.28.14Z"/><path class="cls-2" d="M431.79,80.83l-.06,0-.05,0-.13-.08h0c-4-2.19-9-1.78-14.05,1.17l-3,1.74c-11.43,6.6-20.73,24.32-20.73,39.51v13.21c0,8.2,2.74,14.48,7.5,17.23.25.14.5.28.76.4h0l13.11,7.6L411.36,157l-1.51-6.68-.29-7.68-.07-4.74V127.3l.94-5.31,1-4.31,2.08-5.51,2-4.19,1.83-2.62,2.48-4.16,1.69-2,2.54-2,1.87-1.66L430.64,92l4.3-2.06,3.73-1,3.4.09,3.47-.22-13.75-8"/><path class="cls-7" d="M452.74,108.72l-.16-.28h.05l-.43-3.11c0-1.25-.07-2.35-.07-2.35s-1.58-7.56-1.68-7.71-2.25-3.83-2.25-3.83l-7.09-2.87s-4.45.29-4.45.43l0,.12-.82.2a26.24,26.24,0,0,1,1.34,8.7v3c0,.2.06.4.32.55l13.89,8.05c.45.26.86-.05,1.31-.31s.46-.36,0-.62Z"/><path class="cls-9" d="M410,155.4l-.3,0,.26.77.49.49L410,155.4Z"/><path class="cls-2" d="M437.73,101.65v-3a26.24,26.24,0,0,0-1.33-8.69q.41-.12.81-.21l0-.11a44.68,44.68,0,0,1,4.45-.44L448.5,92l-.3-.52-7.09-2.87s-4.45.29-4.45.43l0,.12-.82.2a26.24,26.24,0,0,1,1.34,8.7v3c0,.2.06.4.32.55l.2.12v-.07Z"/><path class="cls-5" d="M453.38,109.15v-3c0-8.2-2.73-14.48-7.49-17.23-4-2.31-9.06-1.93-14.24,1.07l-3,1.74c-11.43,6.6-20.73,24.32-20.73,39.51v13.22c0,8.19,2.74,14.47,7.5,17.22a11.2,11.2,0,0,0,5.69,1.49,17.3,17.3,0,0,0,8.55-2.55l3-1.75c10-5.79,18.42-20.16,20.32-33.86a3.16,3.16,0,0,1-1.83-.3l-.14-.08c-1.77,13.16-9.77,27-19.35,32.5l-3,1.74c-4.54,2.63-8.88,3-12.23,1.07-4.12-2.38-6.49-8-6.49-15.48V131.29c0-14.55,8.85-31.49,19.73-37.77l3-1.74a15.25,15.25,0,0,1,7.54-2.28,9.29,9.29,0,0,1,4.69,1.21c4.12,2.38,6.49,8,6.49,15.49v3.42l.05,0a1.79,1.79,0,0,0,1.64,0,.52.52,0,0,0,.32-.5Z"/><path class="cls-2" d="M445.31,88.64c-4-2.31-9.05-1.93-14.24,1.06l-3,1.74c-9.23,5.33-17.06,17.9-19.74,30.54a2.93,2.93,0,0,1,.58.31c2.69-12.63,10.51-25.19,19.73-30.51l3-1.74c5.11-3,10.09-3.36,14.06-1.16a3.26,3.26,0,0,0-.4-.24Z"/><path class="cls-11" d="M409.47,154.19l-.39.15a13.89,13.89,0,0,0,5.74,7.06l.19.1a14.3,14.3,0,0,1-5.54-7.31Z"/><path class="cls-2" d="M444.88,90.71l-.2-.1c3.89,2.5,6.11,8,6.11,15.25v3.43l.06,0h0l.51.29V106.2c0-7.46-2.37-13.11-6.49-15.49Z"/><path class="cls-5" d="M415.6,122.7l-25.33-14.62a1.64,1.64,0,0,0-1.66-.15h0l-3.48,2,2.57,1v29.6a6.16,6.16,0,0,0,2.57,4.92l24.22,14-.6,2.74,3.38-2h0a2.26,2.26,0,0,0,.92-2.09V127.62a6.17,6.17,0,0,0-2.58-4.92Z"/><path class="cls-7" d="M417.27,160.22h0a2.26,2.26,0,0,0,.92-2.09V127.62a6.26,6.26,0,0,0-.61-2.53L388,142.19a5.75,5.75,0,0,0,2.31,3.26l24.22,14-.6,2.74,3.38-2Z"/><path class="cls-2" d="M412.15,162.07l-25.33-14.62a6.17,6.17,0,0,1-2.58-4.92V112c0-1.89,1.16-2.77,2.58-2l25.33,14.63a6.16,6.16,0,0,1,2.57,4.92v30.51c0,1.89-1.15,2.77-2.57,1.94Z"/><path class="cls-2" d="M412.86,124.35l-25.33-14.62a1.54,1.54,0,0,0-1.93.07,1.85,1.85,0,0,1,1.22.27l25.33,14.63a6.16,6.16,0,0,1,2.57,4.92v30.51a2.57,2.57,0,0,1-.64,1.88c.8-.12,1.36-.92,1.36-2.23v-30.5a6.2,6.2,0,0,0-2.58-4.93Z"/><path class="cls-7" d="M411.47,160.69l-24-13.84a5.87,5.87,0,0,1-2.44-4.66V113.3c0-1.8,1.1-2.62,2.44-1.84l24,13.84a5.85,5.85,0,0,1,2.44,4.66v28.89c0,1.79-1.09,2.62-2.44,1.84Z"/><path class="cls-2" d="M417.57,143a2.36,2.36,0,0,1-1.07,1.85c-.59.34-1.07.07-1.07-.62a2.36,2.36,0,0,1,1.07-1.85c.59-.34,1.07-.06,1.07.62Z"/><path class="cls-2" d="M397.8,134.42l-3.87-2.24a1.47,1.47,0,0,1-.62-1.19v-4.25c0-.46.27-.67.62-.47l3.87,2.24a1.48,1.48,0,0,1,.63,1.19V134c0,.46-.28.67-.63.47Z"/><path class="cls-6" d="M404.57,138.32l-3.88-2.24a1.48,1.48,0,0,1-.62-1.18v-4.26c0-.45.28-.66.62-.47l3.88,2.24a1.5,1.5,0,0,1,.62,1.19v4.25c0,.46-.28.67-.62.47Z"/><path class="cls-2" d="M397.8,142l-3.87-2.23a1.47,1.47,0,0,1-.62-1.19V134.3c0-.46.27-.67.62-.47l3.87,2.24a1.45,1.45,0,0,1,.63,1.18v4.25c0,.46-.28.67-.63.47Z"/><path class="cls-6" d="M404.57,145.88l-3.88-2.24a1.5,1.5,0,0,1-.62-1.19V138.2c0-.46.28-.67.62-.47l3.88,2.24a1.5,1.5,0,0,1,.62,1.18v4.26c0,.46-.28.67-.62.47Z"/><path class="cls-7" d="M193.6,95a.5.5,0,0,1-.5-.5V66a.5.5,0,0,1,.5-.5.51.51,0,0,1,.5.5V94.45a.5.5,0,0,1-.5.5Z"/><polygon class="cls-4" points="196.07 74.87 191.12 74.87 191.12 64.2 196.07 64.2 196.07 74.87 196.07 74.87"/><path class="cls-4" d="M195.34,75.88a3.84,3.84,0,0,1-3.49,0,1.06,1.06,0,0,1,0-2,3.9,3.9,0,0,1,3.49,0,1.06,1.06,0,0,1,0,2Z"/><polygon class="cls-4" points="197.6 66.07 189.59 66.07 189.59 49.33 197.6 49.33 197.6 66.07 197.6 66.07"/><path class="cls-7" d="M191.12,66v3.61a6.44,6.44,0,0,0,4.95,0V66a6.44,6.44,0,0,0-4.95,0Z"/><path class="cls-4" d="M196.43,67.7a6.23,6.23,0,0,1-5.67,0c-1.56-.9-1.56-2.36,0-3.27a6.29,6.29,0,0,1,5.67,0c1.56.91,1.56,2.37,0,3.27Z"/><path class="cls-7" d="M221.35,110.57a.5.5,0,0,1-.5-.5V81.61a.5.5,0,1,1,1,0v28.46a.5.5,0,0,1-.5.5Z"/><polygon class="cls-4" points="223.82 90.49 218.88 90.49 218.88 79.82 223.82 79.82 223.82 90.49 223.82 90.49"/><path class="cls-4" d="M223.1,91.5a3.86,3.86,0,0,1-3.5,0,1.07,1.07,0,0,1,0-2,3.86,3.86,0,0,1,3.5,0,1.07,1.07,0,0,1,0,2Z"/><polygon class="cls-4" points="225.36 81.68 217.34 81.68 217.34 64.95 225.36 64.95 225.36 81.68 225.36 81.68"/><path class="cls-7" d="M218.88,81.57v3.62a6.41,6.41,0,0,0,4.94,0V81.57a6.41,6.41,0,0,0-4.94,0Z"/><path class="cls-4" d="M224.18,83.32a6.27,6.27,0,0,1-5.66,0c-1.57-.9-1.57-2.37,0-3.27a6.21,6.21,0,0,1,5.66,0c1.57.9,1.57,2.37,0,3.27Z"/><polyline class="cls-3" points="248.33 92.72 259.07 86.39 248.84 73.62 246.15 78.01 248.33 92.72"/><polygon class="cls-4" points="170.32 22.64 187.47 12.77 186.83 22.64 176.98 25.68 170.32 22.64 170.32 22.64"/><path class="cls-3" d="M251.31,60.61a10.61,10.61,0,0,0-3.71-1.38c-1.73-9.08-8-18.73-15.58-23.08A15.29,15.29,0,0,0,225.64,34c-1-11-8.69-23.53-18-28.9-4.86-2.8-9.27-3.13-12.52-1.41h0l-.16.09-.24.14-10.11,6L188,12.53c-3,1.31-4.93,4.7-4.93,9.69,0,9.22,6.48,20.43,14.46,25l53.79,38.42c6,3.46,10.86.65,10.86-6.27s-4.86-15.34-10.86-18.8"/><path class="cls-4" d="M183.56,18.17,206.77,4.61c-4.51-2.35-8.58-2.55-11.63-.93h0l-.16.09-.24.14-10.11,6L188,12.53a8.09,8.09,0,0,0-4.43,5.64Z"/><path class="cls-3" d="M226.41,58.05l16.94-9.94a32.86,32.86,0,0,0-11.33-12,17.93,17.93,0,0,0-1.74-.89L208.75,47.85l17.66,10.2Z"/><path class="cls-2" d="M189.4,11l7.54,4.36L210.76,7.2a30.31,30.31,0,0,0-3.1-2.11,19.56,19.56,0,0,0-4.83-2L189.4,11Z"/><path class="cls-2" d="M241.48,45.19l-13.51,8,4.69,5.24,12.27-7.24a39.29,39.29,0,0,0-3.45-6Z"/><path class="cls-6" d="M240.7,66.86A11.1,11.1,0,0,0,237,65.48c-1.73-9.08-8.05-18.73-15.59-23.08A15.24,15.24,0,0,0,215,40.24c-1-11-8.68-23.52-18-28.89-10-5.78-18.1-1.1-18.1,10.45,0,.39,0,.79,0,1.18-7.32-3.39-13,.43-13,9.09,0,9.22,6.47,20.43,14.46,25l60.3,34.82c6,3.46,10.85.65,10.85-6.27s-4.86-15.34-10.85-18.8"/><path class="cls-2" d="M241.58,66a11,11,0,0,0-3.71-1.38c-1.73-9.08-8.05-18.73-15.59-23.08a15.2,15.2,0,0,0-6.37-2.16c-1-11-8.69-23.52-18-28.89-6.23-3.6-11.72-3.14-15,.51,3.32-2.83,8.4-2.94,14.1.35,9.3,5.37,17,17.88,18,28.89a15.24,15.24,0,0,1,6.38,2.16c7.54,4.35,13.86,14,15.59,23.08a11.1,11.1,0,0,1,3.71,1.38c6,3.46,10.85,11.88,10.85,18.8a9,9,0,0,1-1.73,5.78c1.63-1.26,2.62-3.53,2.62-6.64,0-6.92-4.86-15.34-10.86-18.8"/><path class="cls-5" d="M177.69,25.73l4.53,2.11-.23-5c0-.35,0-.69,0-1,0-4.45,1.34-7.69,3.78-9.1s5.92-.95,9.78,1.27c8.29,4.79,15.53,16.46,16.48,26.55l.23,2.55,2.55.19a12.39,12.39,0,0,1,5.1,1.76c6.59,3.81,12.53,12.65,14.12,21l.4,2.1,2.11.33a7.81,7.81,0,0,1,2.66,1c5.07,2.93,9.34,10.34,9.34,16.18,0,2.19-.6,3.79-1.66,4.4s-2.75.34-4.65-.75l-60.3-34.82C174.9,50.44,169,40.18,169,32.07c0-3.17.94-5.6,2.57-6.64a4.43,4.43,0,0,1,2.41-.64,9.06,9.06,0,0,1,3.74.94"/><polygon class="cls-2" points="207.79 63.53 209.38 62.73 207.81 61.54 207.79 63.53 207.79 63.53"/><polygon class="cls-2" points="203.01 42.04 204.55 41.26 204.58 42.06 203.01 42.04 203.01 42.04"/><polygon class="cls-2" points="212.32 58.5 213.94 57.69 210.83 54.74 212.32 58.5 212.32 58.5"/><path class="cls-2" d="M208.91,62.68l-7.53-4.44a1.6,1.6,0,0,1-.69-1.26l0-8.72,8.92,5.25,0,8.72c0,.47-.32.67-.7.45Z"/><path class="cls-2" d="M204.54,41.27,196.4,46.5c-.34.22-.06,1,.46,1.36l8.31,4.89,8.3,4.9c.53.3.81-.19.47-.82l-8.08-14.78c-.35-.64-1-1-1.32-.78Z"/><path class="cls-4" d="M207.3,63.49l-7.54-4.44a1.57,1.57,0,0,1-.68-1.26l0-8.72L208,54.32,208,63c0,.47-.31.68-.69.45Z"/><path class="cls-4" d="M202.92,42.08l-8.13,5.23c-.35.23-.07,1,.46,1.36l8.3,4.9,8.31,4.89c.52.31.81-.19.46-.82l-8.07-14.78c-.35-.64-1-1-1.33-.78Z"/><path class="cls-2" d="M192.84,73c0,.49-.35.69-.77.45a1.69,1.69,0,0,1-.77-1.33c0-.5.34-.7.77-.45a1.72,1.72,0,0,1,.77,1.33Z"/><path class="cls-2" d="M220.66,88.87c0,.49-.35.69-.77.44a1.68,1.68,0,0,1-.77-1.33c0-.49.34-.69.77-.45a1.74,1.74,0,0,1,.77,1.34Z"/></g></g></svg>